<?xml version="1.0" encoding="utf-8"?>

<svg version="1.1" id="Слой_1" xmlns="http://www.w3.org/2000/svg" xmlns:xlink="http://www.w3.org/1999/xlink" x="0px" y="0px"
	 viewBox="0 0 1024 1024" style="enable-background:new 0 0 1024 1024;" xml:space="preserve">
<style type="text/css">
	.st0{fill:#D4343E;}
	.st1{fill:#C11F2F;}
	.st2{fill:#5DC3F3;}
	.st3{fill:#E8F6FC;}
</style>
<g>
	<path class="st0" d="M251.4,1014c93.4-7.7,111.7-157.3,186-162.6c74.2-5.4,84.5,194.4,263.8,170.6
		c122.7-16.1,168.4-116.2,165-271.9c-1.5-72-13.4-155.6-32.9-248.5c-24.5-115.9-54.5-240.1-111.7-336
		C662.2,65.4,572.8-3.9,429.4,0.2c-311,8.6-339,429.5-336,702.3C96.4,975.3,158.2,1021.6,251.4,1014z"/>
	<path class="st1" d="M833.3,501.6c19.6,92.9,31.4,176.5,32.9,248.5c73.9-12.7,121.2-136.2,56.3-386.3
		C858,113.7,721.7,165.7,721.7,165.7C778.8,261.5,808.9,385.7,833.3,501.6z"/>
	<path class="st2" d="M70.8,302.1c2.2,68.3,119.9,160,261.3,155.4C473.4,453,585,354,582.8,285.7s-118.6-120-260-115.5
		C181.4,174.7,68.6,233.8,70.8,302.1z"/>
	<ellipse class="st3" cx="370.7" cy="232.6" rx="117.4" ry="32.5"/>
</g>
</svg>
