<svg id="katman_1" data-name="katman 1" xmlns="http://www.w3.org/2000/svg" viewBox="0 0 1068.65515 857.97803">
  <defs>
    <style>
      .cls-1 {
        fill: #1a1a18;
      }

      .cls-1, .cls-3, .cls-4, .cls-5, .cls-6, .cls-7 {
        fill-rule: evenodd;
      }

      .cls-2 {
        fill: #e3000f;
      }

      .cls-3 {
        fill: #fde65c;
      }

      .cls-4, .cls-8 {
        fill: #fff;
      }

      .cls-5 {
        fill: #fbb922;
      }

      .cls-6 {
        fill: #ca5f42;
      }

      .cls-7 {
        fill: #fcbe1f;
      }
    </style>
  </defs>
  <title>Brawl Stars</title>
  <path class="cls-1" d="M343.8782,23.52551l5.175-19.72516,57.15042,2.09986s38.09989-1.34979,53.85,18.6001l1.50012-16.65009L561.00391,2,567.754,20.30023l55.95-4.6499,6.44989,10.49982,1.95032-10.8,63-4.5,6.60009,9L703.6543,9.2l79.2-5.69989-1.64978,8.8501,51.90008,2.84991-5.85009,91.35047,45.30017,2.09991-12.00019,40.5s41.85041-19.34961,85.35059-11.5498l4.12531-10.2002L1066.65515,158.226l-45.30023,132.4505s69.44989,64.50037-4.3504,165.30039-107.40021,92.39978-190.2002,76.79989h-60s10.80017,29.70029-12.29993,69.60039c0,0,15.3,3,11.99988,22.5s-.6,89.70041-87.9,116.1003l7.34991,27.60011L594.4538,789.578l-65.40009,68.4-66.30011-67.7999-91.50009-21.6,8.7001-28.8s-84.6008-8.4002-91.20071-117c0,0-3.15021-18.89969,12.44971-21.89989,0,0-21.6008-31.0502-9.60062-81.1502l-2.251-42.30091s-28.05111,70.05-137.251,67.05011c0,0-42.59991,3.60028-94.79991-29.39981L0,440.97723,35.1,333.2771s-54.0003-68.99976-23.4003-144.59979,123.0001-65.09986,123.0001-65.09986l3.6-13.5003,98.1003,14.40027-1.95-20.55-14.25-16.35,6.59929-68.8504s61.94982-7.20032,73.3499-8.55011S325.6492,7.62683,343.8782,23.52551"/>
  <path class="cls-2" d="M248.58791,362.10272q0-44.33908-31.45041-69.93762-17.0355-13.71323-57.2218-28.3407-31.0134-10.97-31.0136-20.11267,0-14.62757,20.9668-14.62762,11.79359,0,34.9449,8.22784,20.52977,7.31379,33.63389,15.0849L245.0934,153.204l-78.626-15.99841-3.05771,10.05609q-7.4253-.91407-12.4489-1.37109-5.0229-.4575-7.64391-.45722H129.3392q-44.5551,0-72.0737,24.68353-29.26635,26.05527-29.2663,71.76648,0,44.79657,31.8872,69.9372,17.9094,13.71349,58.5326,27.88379,31.44975,10.97058,31.4499,21.941,0,14.6277-19.6566,14.62771-17.0355,0-40.623-9.59961L50.7132,348.84674,27.1259,439.35382q52.41645,30.16905,104.39709,30.1695,49.79612,0,82.12-26.9697,34.94474-29.71152,34.9449-80.4509"/>
  <polygon class="cls-2" points="433.156 196.455 351.371 198.517 349.646 207.86 239.897 210.771 226.621 280.683 286.613 279.354 291.923 444.996 362.719 442.743 357.773 278.122 416.85 276.783 433.156 196.455"/>
  <path class="cls-2" d="M550.813,344.11511h-39.3179l19.47543-74.59369Zm106.1961,101.05152L585.72168,193.82452h-141.186L429.41589,261.437H453.8038L404.5643,445.16663h80.47391l10.2886-34.9087h71.28678l6.98181,34.9087Z"/>
  <path class="cls-2" d="M753.65057,294.00854q-.59354,19.88051-24.766,19.15937l-16.88788-.504,1.21912-40.84534,16.8877.504q24.17293.72162,23.54705,21.68591M823.2182,450.56662l-37.02069-81.059q37.87391-25.28008,39.41711-76.96881,1.17564-39.39927-21.25921-65.03217-22.10385-25.62286-58.19763-26.69983l-101.658-3.03387-17.73194,72.189,15.56372.4646-5.21069,174.58591,70.86279,2.1149,2.1789-73.01511,28.28528,73.92441Z"/>
  <path class="cls-2" d="M1029.67883,374.32764q1.53991-41.768-28.57415-67.0246-16.31681-13.53708-55.42377-28.77673-30.19154-11.462-29.87409-20.07386.50821-13.77931,21.17707-13.017,11.62574.42875,34.162,9.0207,19.984,7.63623,32.6319,15.43243L1033.49,177.4173,956.5379,159.4884l-3.36358,9.362q-7.288-1.13141-12.22425-1.74408-4.936-.61368-7.51965-.70868l-13.77924-.508Q875.73,164.27009,847.745,186.52191q-29.75491,23.48054-31.34272,66.54022-1.556,42.19859,29.00409,67.04078,17.179,13.56883,56.73181,28.394,30.62174,11.47787,30.24109,21.8118-.508,13.77931-19.885,13.06491-16.79361-.6195-39.71264-10.51941l-37.70355-18.20639-26.39625,84.401q50.62355,30.325,101.865,32.21438,49.08855,1.81009,81.88922-22.42007,35.48007-26.71893,37.24273-74.5155"/>
  <path class="cls-3" d="M528.6441,506.01624c63.73188,0,115.397,50.47,115.397,112.72729S592.376,731.47092,528.6441,731.47092s-115.397-50.47-115.397-112.72739,51.6651-112.72729,115.397-112.72729m-.37469-71.72822,67.5,70.12522,96.00006,23.25009-27.75006,91.87509,27.0003,94.875-95.2503,24.37511-67.5,69.7502-67.5-70.1252-95.25031-22.875,26.25019-93.75-25.87519-94.1252,93.00019-23.25009Z"/>
  <path class="cls-4" d="M365.8941,527.66333l93.00019-23.25009L528.26941,434.288l.37469,71.72822a115.855,115.855,0,0,0-100.09579,56.596l-.00031.00031Z"/>
  <path class="cls-5" d="M527.91022,808.16563l-67.14081-69.7521-95.25031-22.875,61.42469-33.213a121.31894,121.31894,0,0,0,100.96643,54.3467Zm163.85925-280.5023-27.75006,91.87509,27.0003,94.875-58.79681-35.0549a115.69169,115.69169,0,0,0,1.01819-119.54779Z"/>
  <path class="cls-6" d="M691.00378,714.35733l.01593.05609-95.2503,24.37511-67.5,69.7502-.35919-.3731v-71.4934c.24487.0014.4884.009.73388.009a121.25522,121.25522,0,0,0,103.58051-57.3253Z"/>
  <path class="cls-4" d="M709.01971,518.66333l36.75007-15.00009s32.2503,60.74978-21.375,114.37509l27.09411-2.62491s7.219,68.25-43.78107,97.49991l-27.375-91.50011Z"/>
  <path class="cls-4" d="M347.19791,518.66333l-36.7501-15.00009s-32.2503,60.74978,21.375,114.37509l-27.09411-2.62491s-7.219,68.25,43.7811,97.49991l27.375-91.50011Z"/>
  <path class="cls-7" d="M537.60022,615.00352h0a5.852,5.852,0,0,0,8.246-.31439l11.88764-12.8304a5.83512,5.83512,0,1,0-8.56061-7.93161l-11.8877,12.8304a5.85205,5.85205,0,0,0,.3147,8.246m35.29388-7.99c15.112,0,27.3631,12.96759,27.3631,28.96439s-12.2511,28.9644-27.3631,28.9644S545.531,651.97473,545.531,635.97792,557.782,607.01353,572.8941,607.01353Zm-86.37539,0c15.11209,0,27.36319,12.96759,27.36319,28.96439s-12.2511,28.9644-27.36319,28.9644-27.3631-12.96759-27.3631-28.9644S471.40671,607.01353,486.51871,607.01353Zm33.15207,7.99h0a5.852,5.852,0,0,1-8.246-.31439l-11.88769-12.8304a5.83515,5.83515,0,1,1,8.5607-7.93161l11.8876,12.8304A5.8521,5.8521,0,0,1,519.67078,615.00352Zm8.97332,31.15671,7.79731,11.71869,7.797,11.71881H513.04993l7.79718-11.71881Zm0-121.16661c53.00281,0,95.9704,38.21781,95.9704,85.36221,0,31.26279-18.89831,58.595-47.0838,73.46579V698.117a8.529,8.529,0,0,1-8.50391,8.504h-80.8674a8.529,8.529,0,0,1-8.5039-8.504V683.76782c-28.12928-14.88279-46.98169-42.18689-46.98169-73.412C432.6738,563.21143,475.64139,524.99362,528.6441,524.99362Z"/>
  <path class="cls-4" d="M512.7951,544.18564c-8.98419-9.61521-26.993-7.38773-40.22421,4.97528s-16.67428,30.17941-7.69009,39.79449,26.99289,7.38761,40.22409-4.97537,16.67428-30.17962,7.69021-39.7944"/>
  <path class="cls-8" d="M307.3793,111.59656q1.029,9.36666-9.60659,10.68829l-8.61811,1.07178-1.971-17.95239,6.2345-.775q13.01912-1.61818,13.96121,6.96735m-3.634-43.26093q.85725,7.80452-10.87851,9.26361L284.2486,78.671,282.5351,63.0603l7.15069-.88885Q302.88852,60.52963,303.7453,68.33563Zm47.418,49.28961q-1.39215-12.684-6.6716-20.13732-4.80523-6.52287-16.09229-12.83381,14.85975-11.93537,12.65348-32.03381-1.58547-14.44043-11.76059-22.47137-10.17448-8.03147-23.74439-6.34449l-64.7286,8.04731L236.4857,71.95062l8.6185-1.07177,10.3685,94.44445,63.26171-7.865q15.21945-1.89248,24.2546-12.70776Q352.899,133.43088,351.1633,117.62524Z"/>
  <path class="cls-8" d="M420.0965,72.34631q-.36616,10.74857-13.6763,10.22742l-9.2988-.364L397.874,60.1264l9.2988.364q13.31026.52129,12.92371,11.85589m37.9981,85.04682L437.86938,113.354q20.907-13.4664,21.85972-41.41278.72568-21.30176-11.57789-35.28589Q436.03014,22.6779,416.156,21.90015L360.1806,19.70844l-9.90829,38.94537,8.5697.33569-3.217,94.39173,39.01859,1.52758,1.3453-39.47638,15.429,40.13318Z"/>
  <path class="cls-8" d="M535.99182,99.76l-21.01245,1.40735,7.738-40.56177Zm60.37085,50.203L549.26819,18.19153,475.03079,22.445l-3.2684,37.2337,9.42612-.63165-19.73822,99.95221,43.0072-2.88056,4.2489-19.02441,38.09732-2.55182,4.98077,18.40619Z"/>
  <polygon class="cls-8" points="764.525 19.95 714.947 23.818 705.404 81.454 685.28 26.337 646.541 29.616 632.825 88.562 618.815 32.003 568.393 36.808 613.544 165.182 662.511 161.038 671.989 104.188 694.068 158.367 742.818 154.241 764.525 19.95"/>
  <polygon class="cls-8" points="852.619 122.82 811.383 120.682 818.375 29.96 771.968 26.408 765.059 65.572 774.112 66.269 767.001 158.532 840.019 163.12 852.619 122.82"/>
</svg>
