<?xml version="1.0" encoding="UTF-8" standalone="no"?>
<!-- Created with Inkscape (http://www.inkscape.org/) -->

<svg
   version="1.1"
   id="svg2"
   xml:space="preserve"
   width="1000"
   height="803.30286"
   viewBox="0 0 999.99999 803.30286"
   sodipodi:docname="Brawl Stars (print).svg"
   inkscape:version="1.1.2 (b8e25be833, 2022-02-05)"
   xmlns:inkscape="http://www.inkscape.org/namespaces/inkscape"
   xmlns:sodipodi="http://sodipodi.sourceforge.net/DTD/sodipodi-0.dtd"
   xmlns="http://www.w3.org/2000/svg"
   xmlns:svg="http://www.w3.org/2000/svg"><defs
     id="defs6"><clipPath
       clipPathUnits="userSpaceOnUse"
       id="clipPath18"><path
         d="M 0,774 H 648 V 0 H 0 Z"
         id="path16" /></clipPath><clipPath
       clipPathUnits="userSpaceOnUse"
       id="clipPath244"><path
         d="M 0,0 H 648 V 774 H 0 Z"
         id="path242" /></clipPath><clipPath
       clipPathUnits="userSpaceOnUse"
       id="clipPath250"><path
         d="m 575.756,72.471 h 11.927 v 1.723 h -11.927 z"
         id="path248" /></clipPath><linearGradient
       x1="575.75598"
       y1="74.193939"
       x2="587.68298"
       y2="74.193939"
       gradientUnits="userSpaceOnUse"
       id="linearGradient256"><stop
         style="stop-opacity:1;stop-color:#ffffff"
         offset="0"
         id="stop252" /><stop
         style="stop-opacity:1;stop-color:#ffffff"
         offset="1"
         id="stop254" /></linearGradient><clipPath
       clipPathUnits="userSpaceOnUse"
       id="clipPath278"><path
         d="M 0,0 H 648 V 774 H 0 Z"
         id="path276" /></clipPath><clipPath
       clipPathUnits="userSpaceOnUse"
       id="clipPath284"><path
         d="m 613.174,72.471 h 11.927 v 1.723 h -11.927 z"
         id="path282" /></clipPath><linearGradient
       x1="613.17395"
       y1="74.193939"
       x2="625.10095"
       y2="74.193939"
       gradientUnits="userSpaceOnUse"
       id="linearGradient290"><stop
         style="stop-opacity:1;stop-color:#ffffff"
         offset="0"
         id="stop286" /><stop
         style="stop-opacity:1;stop-color:#ffffff"
         offset="1"
         id="stop288" /></linearGradient><clipPath
       clipPathUnits="userSpaceOnUse"
       id="clipPath360"><path
         d="M 0,0 H 648 V 774 H 0 Z"
         id="path358" /></clipPath><clipPath
       clipPathUnits="userSpaceOnUse"
       id="clipPath366"><path
         d="m 596.165,67.369 h 11.927 v 1.723 h -11.927 z"
         id="path364" /></clipPath><linearGradient
       x1="596.16498"
       y1="69.091949"
       x2="608.09198"
       y2="69.091949"
       gradientUnits="userSpaceOnUse"
       id="linearGradient372"><stop
         style="stop-opacity:1;stop-color:#ffffff"
         offset="0"
         id="stop368" /><stop
         style="stop-opacity:1;stop-color:#ffffff"
         offset="1"
         id="stop370" /></linearGradient><clipPath
       clipPathUnits="userSpaceOnUse"
       id="clipPath406"><path
         d="M 0,0 H 648 V 774 H 0 Z"
         id="path404" /></clipPath><clipPath
       clipPathUnits="userSpaceOnUse"
       id="clipPath412"><path
         d="m 602.969,65.668 h 8.5249 v 1.723 h -8.5249 z"
         id="path410" /></clipPath><linearGradient
       x1="602.96899"
       y1="67.390961"
       x2="611.4939"
       y2="67.390961"
       gradientUnits="userSpaceOnUse"
       id="linearGradient418"><stop
         style="stop-opacity:1;stop-color:#ffffff"
         offset="0"
         id="stop414" /><stop
         style="stop-opacity:1;stop-color:#ffffff"
         offset="1"
         id="stop416" /></linearGradient><clipPath
       clipPathUnits="userSpaceOnUse"
       id="clipPath458"><path
         d="M 0,0 H 648 V 774 H 0 Z"
         id="path456" /></clipPath><clipPath
       clipPathUnits="userSpaceOnUse"
       id="clipPath464"><path
         d="m 575.756,62.266 h 11.927 v 1.7231 h -11.927 z"
         id="path462" /></clipPath><linearGradient
       x1="575.75598"
       y1="63.989014"
       x2="587.68298"
       y2="63.989014"
       gradientUnits="userSpaceOnUse"
       id="linearGradient470"><stop
         style="stop-opacity:1;stop-color:#ffffff"
         offset="0"
         id="stop466" /><stop
         style="stop-opacity:1;stop-color:#ffffff"
         offset="1"
         id="stop468" /></linearGradient><clipPath
       clipPathUnits="userSpaceOnUse"
       id="clipPath494"><path
         d="M 0,0 H 648 V 774 H 0 Z"
         id="path492" /></clipPath><clipPath
       clipPathUnits="userSpaceOnUse"
       id="clipPath500"><path
         d="m 613.174,62.266 h 11.927 v 1.7231 h -11.927 z"
         id="path498" /></clipPath><linearGradient
       x1="613.17395"
       y1="63.989014"
       x2="625.10095"
       y2="63.989014"
       gradientUnits="userSpaceOnUse"
       id="linearGradient506"><stop
         style="stop-opacity:1;stop-color:#ffffff"
         offset="0"
         id="stop502" /><stop
         style="stop-opacity:1;stop-color:#ffffff"
         offset="1"
         id="stop504" /></linearGradient><clipPath
       clipPathUnits="userSpaceOnUse"
       id="clipPath530"><path
         d="M 0,0 H 648 V 774 H 0 Z"
         id="path528" /></clipPath><clipPath
       clipPathUnits="userSpaceOnUse"
       id="clipPath536"><path
         d="m 575.756,58.865 h 8.525 v 1.722 h -8.525 z"
         id="path534" /></clipPath><linearGradient
       x1="575.75598"
       y1="60.586945"
       x2="584.28101"
       y2="60.586945"
       gradientUnits="userSpaceOnUse"
       id="linearGradient542"><stop
         style="stop-opacity:1;stop-color:#ffffff"
         offset="0"
         id="stop538" /><stop
         style="stop-opacity:1;stop-color:#ffffff"
         offset="1"
         id="stop540" /></linearGradient><clipPath
       clipPathUnits="userSpaceOnUse"
       id="clipPath562"><path
         d="M 0,0 H 648 V 774 H 0 Z"
         id="path560" /></clipPath><clipPath
       clipPathUnits="userSpaceOnUse"
       id="clipPath568"><path
         d="m 597.867,58.865 h 8.525 v 1.722 h -8.525 z"
         id="path566" /></clipPath><linearGradient
       x1="597.86694"
       y1="60.586945"
       x2="606.39197"
       y2="60.586945"
       gradientUnits="userSpaceOnUse"
       id="linearGradient574"><stop
         style="stop-opacity:1;stop-color:#ffffff"
         offset="0"
         id="stop570" /><stop
         style="stop-opacity:1;stop-color:#ffffff"
         offset="1"
         id="stop572" /></linearGradient><clipPath
       clipPathUnits="userSpaceOnUse"
       id="clipPath612"><path
         d="M 0,0 H 648 V 774 H 0 Z"
         id="path610" /></clipPath><clipPath
       clipPathUnits="userSpaceOnUse"
       id="clipPath618"><path
         d="m 606.37,57.164 h 11.928 v 1.7231 H 606.37 Z"
         id="path616" /></clipPath><linearGradient
       x1="606.37"
       y1="58.887024"
       x2="618.29797"
       y2="58.887024"
       gradientUnits="userSpaceOnUse"
       id="linearGradient624"><stop
         style="stop-opacity:1;stop-color:#ffffff"
         offset="0"
         id="stop620" /><stop
         style="stop-opacity:1;stop-color:#ffffff"
         offset="1"
         id="stop622" /></linearGradient><clipPath
       clipPathUnits="userSpaceOnUse"
       id="clipPath688"><path
         d="M 0,0 H 648 V 774 H 0 Z"
         id="path686" /></clipPath><clipPath
       clipPathUnits="userSpaceOnUse"
       id="clipPath694"><path
         d="m 585.961,52.061 h 8.525 v 1.723 h -8.525 z"
         id="path692" /></clipPath><linearGradient
       x1="585.961"
       y1="53.783966"
       x2="594.48596"
       y2="53.783966"
       gradientUnits="userSpaceOnUse"
       id="linearGradient700"><stop
         style="stop-opacity:1;stop-color:#ffffff"
         offset="0"
         id="stop696" /><stop
         style="stop-opacity:1;stop-color:#ffffff"
         offset="1"
         id="stop698" /></linearGradient><clipPath
       clipPathUnits="userSpaceOnUse"
       id="clipPath732"><path
         d="M 0,0 H 648 V 774 H 0 Z"
         id="path730" /></clipPath><clipPath
       clipPathUnits="userSpaceOnUse"
       id="clipPath738"><path
         d="m 602.969,50.361 h 11.928 v 1.722 h -11.928 z"
         id="path736" /></clipPath><linearGradient
       x1="602.96899"
       y1="52.083008"
       x2="614.89697"
       y2="52.083008"
       gradientUnits="userSpaceOnUse"
       id="linearGradient744"><stop
         style="stop-opacity:1;stop-color:#ffffff"
         offset="0"
         id="stop740" /><stop
         style="stop-opacity:1;stop-color:#ffffff"
         offset="1"
         id="stop742" /></linearGradient><clipPath
       clipPathUnits="userSpaceOnUse"
       id="clipPath766"><path
         d="M 0,0 H 648 V 774 H 0 Z"
         id="path764" /></clipPath><clipPath
       clipPathUnits="userSpaceOnUse"
       id="clipPath772"><path
         d="m 592.764,48.66 h 10.227 v 1.723 h -10.227 z"
         id="path770" /></clipPath><linearGradient
       x1="592.76398"
       y1="50.382965"
       x2="602.99097"
       y2="50.382965"
       gradientUnits="userSpaceOnUse"
       id="linearGradient778"><stop
         style="stop-opacity:1;stop-color:#ffffff"
         offset="0"
         id="stop774" /><stop
         style="stop-opacity:1;stop-color:#ffffff"
         offset="1"
         id="stop776" /></linearGradient><clipPath
       clipPathUnits="userSpaceOnUse"
       id="clipPath860"><path
         d="M 0,0 H 648 V 774 H 0 Z"
         id="path858" /></clipPath><clipPath
       clipPathUnits="userSpaceOnUse"
       id="clipPath866"><path
         d="m 602.969,43.557 h 15.329 v 1.7231 h -15.329 z"
         id="path864" /></clipPath><linearGradient
       x1="602.96899"
       y1="45.280029"
       x2="618.29797"
       y2="45.280029"
       gradientUnits="userSpaceOnUse"
       id="linearGradient872"><stop
         style="stop-opacity:1;stop-color:#ffffff"
         offset="0"
         id="stop868" /><stop
         style="stop-opacity:1;stop-color:#ffffff"
         offset="1"
         id="stop870" /></linearGradient><clipPath
       clipPathUnits="userSpaceOnUse"
       id="clipPath944"><path
         d="M 0,0 H 648 V 774 H 0 Z"
         id="path942" /></clipPath><clipPath
       clipPathUnits="userSpaceOnUse"
       id="clipPath950"><path
         d="m 596.165,38.455 h 11.927 v 1.723 h -11.927 z"
         id="path948" /></clipPath><linearGradient
       x1="596.16498"
       y1="40.177979"
       x2="608.09198"
       y2="40.177979"
       gradientUnits="userSpaceOnUse"
       id="linearGradient956"><stop
         style="stop-opacity:1;stop-color:#ffffff"
         offset="0"
         id="stop952" /><stop
         style="stop-opacity:1;stop-color:#ffffff"
         offset="1"
         id="stop954" /></linearGradient><clipPath
       clipPathUnits="userSpaceOnUse"
       id="clipPath966"><path
         d="M 0,0 H 648 V 774 H 0 Z"
         id="path964" /></clipPath><clipPath
       clipPathUnits="userSpaceOnUse"
       id="clipPath972"><path
         d="m 609.772,38.455 h 8.526 v 1.723 h -8.526 z"
         id="path970" /></clipPath><linearGradient
       x1="609.77197"
       y1="40.177979"
       x2="618.29797"
       y2="40.177979"
       gradientUnits="userSpaceOnUse"
       id="linearGradient978"><stop
         style="stop-opacity:1;stop-color:#ffffff"
         offset="0"
         id="stop974" /><stop
         style="stop-opacity:1;stop-color:#ffffff"
         offset="1"
         id="stop976" /></linearGradient><clipPath
       clipPathUnits="userSpaceOnUse"
       id="clipPath998"><path
         d="M 0,0 H 648 V 774 H 0 Z"
         id="path996" /></clipPath><clipPath
       clipPathUnits="userSpaceOnUse"
       id="clipPath1004"><path
         d="m 602.969,36.754 h 8.5249 v 1.723 h -8.5249 z"
         id="path1002" /></clipPath><linearGradient
       x1="602.96899"
       y1="38.476959"
       x2="611.4939"
       y2="38.476959"
       gradientUnits="userSpaceOnUse"
       id="linearGradient1010"><stop
         style="stop-opacity:1;stop-color:#ffffff"
         offset="0"
         id="stop1006" /><stop
         style="stop-opacity:1;stop-color:#ffffff"
         offset="1"
         id="stop1008" /></linearGradient><clipPath
       clipPathUnits="userSpaceOnUse"
       id="clipPath1020"><path
         d="M 0,0 H 648 V 774 H 0 Z"
         id="path1018" /></clipPath><clipPath
       clipPathUnits="userSpaceOnUse"
       id="clipPath1026"><path
         d="m 616.576,36.754 h 8.525 v 1.723 h -8.525 z"
         id="path1024" /></clipPath><linearGradient
       x1="616.57593"
       y1="38.476959"
       x2="625.10095"
       y2="38.476959"
       gradientUnits="userSpaceOnUse"
       id="linearGradient1032"><stop
         style="stop-opacity:1;stop-color:#ffffff"
         offset="0"
         id="stop1028" /><stop
         style="stop-opacity:1;stop-color:#ffffff"
         offset="1"
         id="stop1030" /></linearGradient><clipPath
       clipPathUnits="userSpaceOnUse"
       id="clipPath1042"><path
         d="M 0,0 H 648 V 774 H 0 Z"
         id="path1040" /></clipPath><clipPath
       clipPathUnits="userSpaceOnUse"
       id="clipPath1048"><path
         d="m 575.756,35.053 h 11.927 v 1.7221 h -11.927 z"
         id="path1046" /></clipPath><linearGradient
       x1="575.75598"
       y1="36.775024"
       x2="587.68298"
       y2="36.775024"
       gradientUnits="userSpaceOnUse"
       id="linearGradient1054"><stop
         style="stop-opacity:1;stop-color:#ffffff"
         offset="0"
         id="stop1050" /><stop
         style="stop-opacity:1;stop-color:#ffffff"
         offset="1"
         id="stop1052" /></linearGradient><clipPath
       clipPathUnits="userSpaceOnUse"
       id="clipPath1066"><path
         d="M 0,0 H 648 V 774 H 0 Z"
         id="path1064" /></clipPath><clipPath
       clipPathUnits="userSpaceOnUse"
       id="clipPath1072"><path
         d="m 594.465,35.053 h 8.526 v 1.7221 h -8.526 z"
         id="path1070" /></clipPath><linearGradient
       x1="594.46497"
       y1="36.775024"
       x2="602.99097"
       y2="36.775024"
       gradientUnits="userSpaceOnUse"
       id="linearGradient1078"><stop
         style="stop-opacity:1;stop-color:#ffffff"
         offset="0"
         id="stop1074" /><stop
         style="stop-opacity:1;stop-color:#ffffff"
         offset="1"
         id="stop1076" /></linearGradient><clipPath
       clipPathUnits="userSpaceOnUse"
       id="clipPath1148"><path
         d="M 0,0 H 648 V 774 H 0 Z"
         id="path1146" /></clipPath><clipPath
       clipPathUnits="userSpaceOnUse"
       id="clipPath1154"><path
         d="m 609.772,31.652 h 8.526 v 1.7221 h -8.526 z"
         id="path1152" /></clipPath><linearGradient
       x1="609.77197"
       y1="33.374023"
       x2="618.29797"
       y2="33.374023"
       gradientUnits="userSpaceOnUse"
       id="linearGradient1160"><stop
         style="stop-opacity:1;stop-color:#ffffff"
         offset="0"
         id="stop1156" /><stop
         style="stop-opacity:1;stop-color:#ffffff"
         offset="1"
         id="stop1158" /></linearGradient><clipPath
       clipPathUnits="userSpaceOnUse"
       id="clipPath1232"><path
         d="M 0,0 H 648 V 774 H 0 Z"
         id="path1230" /></clipPath><clipPath
       clipPathUnits="userSpaceOnUse"
       id="clipPath1238"><path
         d="M 611.473,28.25 H 623.4 v 1.723 h -11.927 z"
         id="path1236" /></clipPath><linearGradient
       x1="611.47302"
       y1="29.972992"
       x2="623.39996"
       y2="29.972992"
       gradientUnits="userSpaceOnUse"
       id="linearGradient1244"><stop
         style="stop-opacity:1;stop-color:#ffffff"
         offset="0"
         id="stop1240" /><stop
         style="stop-opacity:1;stop-color:#ffffff"
         offset="1"
         id="stop1242" /></linearGradient><clipPath
       clipPathUnits="userSpaceOnUse"
       id="clipPath1278"><path
         d="M 0,0 H 648 V 774 H 0 Z"
         id="path1276" /></clipPath><clipPath
       clipPathUnits="userSpaceOnUse"
       id="clipPath1284"><path
         d="m 575.756,24.848 h 11.927 v 1.723 h -11.927 z"
         id="path1282" /></clipPath><linearGradient
       x1="575.75598"
       y1="26.570984"
       x2="587.68298"
       y2="26.570984"
       gradientUnits="userSpaceOnUse"
       id="linearGradient1290"><stop
         style="stop-opacity:1;stop-color:#ffffff"
         offset="0"
         id="stop1286" /><stop
         style="stop-opacity:1;stop-color:#ffffff"
         offset="1"
         id="stop1288" /></linearGradient></defs><sodipodi:namedview
     id="namedview4"
     pagecolor="#ffffff"
     bordercolor="#666666"
     borderopacity="1.0"
     inkscape:pageshadow="2"
     inkscape:pageopacity="0.0"
     inkscape:pagecheckerboard="0"
     showgrid="false"
     inkscape:zoom="0.5"
     inkscape:cx="389"
     inkscape:cy="342"
     inkscape:window-width="1366"
     inkscape:window-height="705"
     inkscape:window-x="-8"
     inkscape:window-y="-8"
     inkscape:window-maximized="1"
     inkscape:current-layer="g8" /><g
     id="g8"
     inkscape:groupmode="layer"
     inkscape:label="pages (1)"
     transform="matrix(1.3333333,0,0,-1.3333333,-103.52925,613.2793)"><path
       id="path146"
       style="fill:#000000;fill-opacity:1;fill-rule:nonzero;stroke:none;stroke-width:13.2322"
       d="m 472.1349,459.95949 -70.43518,-4.57981 -1.85039,-11.1274 c -7.50268,7.66145 -17.16274,11.78975 -28.7674,12.2661 l -48.54998,2.06516 -3.75823,-14.11899 c -1.00566,1.03211 -2.08939,2.01015 -3.25383,2.89671 -7.1057,5.51783 -15.40198,7.75473 -24.66453,6.62999 l -54.14614,-6.56256 -4.96188,-47.74339 9.8838,-12.66316 1.62816,-13.98664 -69.00679,10.70537 -2.05017,-8.91739 c -1.16444,-0.0137 -2.17248,-0.0662 -3.05904,-0.13236 l -9.89629,-0.72917 C 134.37042,372.10943 114.24417,363.4834 99.437307,348.30602 83.254291,331.84513 76.030478,310.38308 77.949148,284.50085 c 0.714544,-9.6463 2.751084,-18.56689 6.085609,-26.57239 L 102.00439,226.89862 85.767794,140.00461 118.63803,97.937291 126.8812,94.049192 c 22.40217,-10.625487 44.83127,-15.999365 66.66444,-15.999365 3.24189,0 6.52177,0.119033 9.72398,0.3571 24.88983,1.839272 45.38833,10.29594 60.97589,25.168963 l 0.0774,0.0924 c 6.98661,6.80138 12.47867,14.48862 16.36894,22.94399 l 1.35097,-29.41416 c -1.2306,-5.200263 -2.3032,-11.57935 -2.55461,-18.618898 -0.54252,-15.150892 2.81904,-28.899969 9.81887,-40.716349 -3.77117,-0.992437 -6.76243,-4.166145 -7.29173,-8.268133 -0.17201,-1.415855 -4.18019,-34.7211988 16.44886,-61.185656 10.77102,-13.801216 25.99935,-23.05258 45.41103,-27.591232 l -5.83339,-19.939896 64.74412,-15.627281 46.11524,-47.768365 45.98038,47.900708 64.70667,15.787112 -5.8234,19.687677 c 19.30582,4.551884 34.48491,13.802993 45.21625,27.551277 20.62905,26.4644572 16.61837,59.769801 16.44636,61.185656 -0.52929,4.101988 -3.51982,7.275696 -7.30422,8.268133 7.01308,11.81638 10.37388,25.565457 9.83136,40.716349 -0.0926,2.752312 -0.32994,5.373699 -0.63429,7.901049 h 40.52907 c 12.10748,-4.28725 24.41563,-6.829418 36.57604,-7.543949 2.42151,-0.145589 4.84225,-0.197281 7.18436,-0.197281 20.8937,0 39.08685,5.542531 54.11867,16.498805 l 0.0924,0.06738 c 7.2645,5.385514 13.32639,11.776914 18.03707,18.988484 l 26.08043,35.87185 c 1.13799,1.45553 2.23668,2.97745 3.26879,4.51237 l 1.45586,1.99774 h -0.14734 c 7.52913,12.00164 11.81682,26.1465 12.74307,42.19718 1.38938,23.63275 -5.92787,43.33535 -21.74037,58.61857 l 32.12859,92.73239 -82.60887,21.64796 -2.95165,-7.88606 c -0.88658,0.0926 -1.68024,0.17257 -2.39479,0.21227 l -9.46178,0.54188 c -18.22078,1.07181 -34.32298,-1.9855 -48.05803,-9.06473 l 8.57278,28.79487 -32.23347,1.75801 4.73714,64.13731 -36.59852,2.32986 0.9639,5.94076 -55.54705,-4.34008 -1.64063,-7.43657 -4.57981,6.95961 -44.6444,-3.49354 -1.62816,-7.96597 -4.03543,7.51648 -39.11567,-3.05654 z m -7.63385,-11.27473 30.60531,-93.55147 -31.25457,-2.02521 -3.21386,13.16758 -25.57851,-1.65562 -2.9916,-13.57462 -31.08228,-2.0252 14.05407,70.13052 -8.53533,-0.46198 4.40501,26.51744 z m -133.79087,-1.20364 39.92225,-1.69308 c 9.44782,-0.38372 17.04214,-3.86398 22.7717,-10.4007 5.80895,-6.53672 8.521,-14.79358 8.11081,-24.70451 -0.52931,-13.03375 -5.7818,-22.66661 -15.77213,-28.91223 l 13.68199,-29.6414 0.55687,-1.21613 -0.90148,0.0399 -32.39078,1.36096 -10.83772,28.11813 -1.11124,-27.6137 -27.84094,1.17616 2.68695,66.01518 -6.11556,0.25222 z m 284.108,-0.62179 -15.28267,-95.01981 -36.42872,-2.85925 -12.79549,35.5547 -7.19685,-37.11544 -36.44119,-2.84677 -29.86616,91.48881 35.25006,2.76436 12.783,-36.50611 7.09197,38.06935 27.76104,2.17003 12.91536,-36.50862 6.95961,38.05687 z m -318.03205,-3.38616 c 4.48697,-0.26299 8.53134,-1.79874 12.14374,-4.60728 4.80329,-3.73148 7.58158,-8.94428 8.37551,-15.63977 1.08504,-9.32874 -1.8531,-16.76441 -8.80003,-22.28226 5.31935,-2.93754 9.11864,-5.91643 11.39459,-8.95984 2.5009,-3.44037 4.10224,-8.12327 4.77708,-14.01161 0.86009,-7.33068 -1.03231,-13.61543 -5.66358,-18.86863 -4.22109,-5.01501 -9.89952,-7.95242 -17.05817,-8.8125 l -44.59195,-5.39888 -7.67381,65.738 -6.07312,-0.74167 2.9092,27.89338 45.62579,5.53124 c 1.59448,0.19518 3.1391,0.24748 4.63475,0.15982 z m 322.98145,-1.11374 31.95628,-2.02271 -4.76461,-64.24469 29.58897,-1.61316 -8.50785,-28.55514 -50.9972,3.26879 4.82952,65.34095 -6.0881,0.46198 z m -262.48751,-22.69179 -0.54188,-17.34782 7.8461,-0.26472 c 4.80331,-0.13228 8.81179,3.62541 8.95735,8.41548 0.14558,4.79006 -3.61042,8.81177 -8.40048,8.95733 z m 87.0014,-1.92032 -5.53123,-28.18306 14.10651,0.91147 z M 281.7182,417.30533 c -0.21649,2e-5 -0.43676,-0.0102 -0.65675,-0.0325 l -5.75597,-0.58433 1.29852,-12.72808 5.75599,0.58184 c 3.51976,0.34403 6.07254,3.49229 5.7285,7.01205 -0.33495,3.2874 -3.12278,5.75049 -6.37029,5.75098 z m 5.54123,-32.1211 c -0.2766,4.2e-4 -0.55536,-0.0115 -0.83656,-0.0399 l -7.35916,-0.75414 1.64065,-16.26408 7.35916,0.74166 c 4.49897,0.4499 7.76734,4.47414 7.30422,8.95986 -0.40937,4.20537 -3.95921,7.3504 -8.10831,7.35665 z m -100.97806,-19.17327 61.46285,-9.54168 -18.0096,-65.65809 c -6.45732,3.16251 -37.40758,12.14831 -50.46779,10.16348 -9.8183,-1.49524 -14.60935,-4.50083 -14.10652,-11.30219 0.31758,-4.26078 7.99285,-8.40083 23.01142,-12.42342 19.47784,-5.42521 33.47835,-11.01097 41.9999,-16.79347 15.73312,-10.81073 24.37469,-26.55498 25.88317,-47.18402 1.75988,-23.63277 -5.12318,-42.9667 -20.59167,-58.01175 -14.34371,-13.68212 -33.26447,-21.39538 -56.77814,-23.12878 -24.55901,-1.82607 -49.71406,3.38721 -75.51692,15.58732 l 12.02887,64.43947 28.46275,-10.4132 c 11.47233,-3.63886 21.2366,-5.16028 29.2818,-4.56482 9.27579,0.67483 13.67041,4.4334 13.16758,11.23477 -0.37051,5.10764 -8.17742,9.67262 -23.42095,13.68199 -19.66309,5.16057 -33.96788,10.62465 -42.8864,16.39392 -15.93161,10.599 -24.664615,26.30754 -26.212787,47.16155 -1.561405,21.29065 4.100313,38.49038 17.028197,51.65645 12.1472,12.4383 28.74183,19.43978 49.78108,21.0012 l 9.89629,0.72668 c 1.24382,0.0926 3.05703,0.13211 5.43882,0.0924 2.38182,-0.0398 5.34619,-0.14592 8.89243,-0.30466 z m 568.49569,-12.90288 52.61038,-13.78687 -21.91268,-65.14366 c -5.71632,3.79765 -13.09929,7.59693 -22.18984,11.39458 -10.22851,4.28724 -18.0092,6.56213 -23.32856,6.87969 -9.46105,0.55576 -14.38453,-2.43535 -14.76826,-8.93236 -0.23817,-4.0623 6.49776,-8.95605 20.21958,-14.64591 17.74442,-7.58206 30.28846,-14.63604 37.63235,-21.18598 13.52334,-12.21336 19.71766,-28.1847 18.56645,-47.90072 -1.32321,-22.57417 -10.25685,-40.01547 -26.79712,-52.30822 -15.29647,-11.15475 -34.16426,-16.06326 -56.6458,-14.75327 -20.57613,1.20414 -40.92707,7.56908 -61.0533,19.12083 l 4.72215,-10.13602 -63.05105,2.8318 -20.35194,52.33318 -2.31487,-51.31434 -39.76243,1.80047 0.0524,-0.17231 H 477.6811 l -4.40751,25.04911 h -48.05801 l -7.2393,-25.04911 h -58.39381 l 34.80056,129.50322 -16.02435,0.14483 11.472,49.0669 h 100.68589 l 34.81303,-135.63128 3.6259,80.35892 -11.57938,0.5294 13.86929,50.53522 75.6068,-3.41363 c 17.88998,-0.79394 32.24872,-7.30526 43.04622,-19.50539 2.72584,-3.03018 5.0814,-6.25938 7.07947,-9.68652 1.27031,20.15269 8.78568,35.60891 22.58691,46.37993 13.0602,10.24176 29.65385,14.79224 49.75361,13.61458 l 9.45928,-0.55438 c 1.17767,-0.0794 2.89893,-0.26528 5.16165,-0.60931 2.2627,-0.3308 5.04097,-0.79472 8.37551,-1.40341 z M 382.92351,325.90392 367.933,268.31668 l -41.68276,-1.7605 5.8234,-117.14474 -50.25554,-2.48717 -6.10058,117.84643 -40.75632,-2.42226 10.26836,50.01832 74.25834,4.08786 1.09876,6.68243 z m 193.04621,-54.266 -1.07128,-34.03392 15.40253,-0.47697 c 9.40813,-0.30434 17.26649,7.08069 17.5576,16.48881 0.30435,9.39488 -7.07821,17.26725 -16.48631,17.54512 z m -122.42376,-0.82157 -14.21139,-52.16088 26.62232,-0.1848 z m 211.54275,-17.57009 v -0.46447 c -1.08503,-24.21496 -11.11563,-42.07824 -30.05093,-53.61674 l 16.11672,-34.58829 17.00323,51.85622 25.61847,-13.41729 c 10.3873,-4.90914 19.43883,-7.56851 27.12676,-8.01841 8.87882,-0.51603 13.49626,2.47457 13.86678,8.98482 0.2911,4.8827 -6.51155,10.17391 -20.43185,15.877 -17.95613,7.38358 -30.80369,14.35735 -38.53133,20.93378 -4.30046,3.75794 -7.87292,7.91473 -10.71785,12.45338 z m -216.54458,-96.99257 47.86076,-49.59629 67.20633,-16.194147 -19.29313,-65.977716 19.47792,-65.92279 -67.16637,-16.393912 -47.72841,-49.726145 -47.86075,49.593789 -67.20883,16.196645 19.29312,65.987714 -19.47791,65.922777 67.16637,16.381435 z m -153.21634,-49.46394 24.86182,-10.003654 2.88423,-9.751457 18.56645,-62.838783 -18.37917,-62.866248 -0.46447,-1.58819 c -36.90468,22.680023 -31.04232,68.582265 -31.04232,68.582265 l 20.82641,-2.422253 c -23.03732,18.670679 -24.91403,43.403403 -22.57193,60.578843 1.62756,11.988396 5.31898,20.309477 5.31898,20.309477 z m 306.7873,0 c 0,0 3.6939,-8.321081 5.32146,-20.309477 2.3421,-17.17544 0.46114,-41.908164 -22.58939,-60.578843 l 20.84138,2.422253 c 0,0 5.83493,-45.691971 -30.80509,-68.424952 l -0.51442,1.787977 -18.56646,62.813813 18.37917,62.866248 2.72691,9.27448 z m -153.40114,-1.03133 c -44.72494,0 -80.96575,-36.176857 -80.96575,-80.795933 0,-44.632295 36.24081,-80.808408 80.96575,-80.808408 44.71169,0 80.96822,36.176113 80.96822,80.808408 0,44.619076 -36.25653,80.795933 -80.96822,80.795933 z m 0,-13.429774 c 37.15608,0 67.27374,-31.441051 67.27374,-64.481927 0,-21.7405437 -13.08551,-38.717757 -32.60305,-47.808305 v -7.633857 c 0,-4.102 -3.32134,-7.436563 -7.43656,-7.436563 h -54.46577 c -4.102,0 -7.44906,3.334563 -7.44906,7.436563 v 7.633857 c -19.50429,9.090548 -32.60305,26.0677613 -32.60305,47.808305 0,33.040876 30.12764,64.481927 67.28375,64.481927 z M 432.27507,44.912383 c -1.19254,0 -2.38236,-0.452058 -3.28877,-1.358461 -1.82606,-1.812819 -1.82606,-4.763983 0,-6.590035 l 8.62773,-8.600249 c 0.91301,-0.899793 2.10287,-1.375939 3.29376,-1.375939 1.20414,0 2.39573,0.476146 3.30875,1.375939 1.81281,1.812819 1.81281,4.748985 0,6.57505 l -8.6402,8.615234 c -0.91303,0.906403 -2.10872,1.358461 -3.30127,1.358461 z m 33.48205,0 c -1.19089,0 -2.38072,-0.452058 -3.29376,-1.358461 l -8.64021,-8.615234 c -1.81282,-1.826039 -1.81282,-4.775464 0,-6.57505 0.92625,-0.913026 2.11786,-1.375939 3.30875,-1.375939 1.1909,0 2.38075,0.462913 3.29377,1.375939 l 8.62772,8.600249 c 1.82607,1.826065 1.82607,4.763996 0,6.590035 -0.91302,0.906403 -2.10536,1.358461 -3.29627,1.358461 z M 419.00761,34.331875 c -10.81072,0 -19.57032,-9.077546 -19.57032,-20.272026 0,-11.1944678 8.7596,-20.2720261 19.57032,-20.2720261 10.81072,0 19.57032,9.0775583 19.57032,20.2720261 0,11.19448 -8.7596,20.272026 -19.57032,20.272026 z m 60.93594,0 c -10.81073,0 -19.57032,-9.077546 -19.57032,-20.272026 0,-11.1944678 8.75959,-20.2720261 19.57032,-20.2720261 10.81073,0 19.57032,9.0775583 19.57032,20.2720261 0,11.19448 -8.75959,20.272026 -19.57032,20.272026 z M 449.07103,7.1651607 c 0,0.01368 -10.4931,-16.8184297 -10.4931,-16.8184297 -0.0137,-0.026466 20.27278,-0.026466 20.25955,0 z" /></g></svg>
