<svg width="116" height="120" viewBox="0 0 116 120" fill="none" xmlns="http://www.w3.org/2000/svg">
<path d="M109.302 30.6201L79.6949 24.0349L58.151 2L36.6071 23.9083L7 30.4934L15.8191 60L7 89.5065H7.12599L36.6071 96.0917L58.151 118L79.5689 96.0917L109.176 89.5065L100.357 60L109.302 30.6201ZM89.018 76.7162C82.9706 87.1004 71.6317 94.1921 58.781 94.3188C58.655 94.3188 58.529 94.3188 58.403 94.3188C45.5522 94.3188 34.2134 87.3537 28.04 77.0961H27.914V76.8428C24.7643 71.524 22.8745 65.3188 22.8745 58.607C22.8745 52.9083 24.2603 47.4629 26.6541 42.6507C32.4495 31.1266 44.4184 23.1485 58.025 23.0218C58.151 23.0218 58.277 23.0218 58.277 23.0218C72.0097 23.0218 83.8525 30.8734 89.7739 42.2707C92.2937 47.2096 93.8056 52.7817 93.8056 58.607C93.9315 65.3188 92.1677 71.3974 89.018 76.7162Z" fill="#FBBE03"/>
<path d="M43.1584 79.7555V86.8472H73.0175V79.7555C81.5847 75.1966 87.3801 66.7119 87.3801 56.9608C87.3801 42.3975 74.2774 30.4935 58.0249 30.4935C41.8985 30.4935 28.6698 42.3975 28.6698 56.9608C28.7958 66.7119 34.5912 75.0699 43.1584 79.7555ZM80.1988 64.9389C80.1988 69.4979 76.5451 73.297 72.0096 73.297C67.474 73.297 63.6944 69.4979 63.6944 64.9389C63.6944 60.38 67.348 56.7075 72.0096 56.7075C76.6711 56.7075 80.1988 60.2534 80.1988 64.9389ZM59.1588 56.8341L64.5763 51.5154C65.3322 50.7555 66.4661 50.7555 67.2221 51.5154C67.978 52.2752 67.978 53.4149 67.2221 54.1748L61.8046 59.4935C61.4266 59.8734 60.9227 60.0001 60.4187 60.0001C59.9148 60.0001 59.4108 59.8734 59.0329 59.4935C58.5289 58.7337 58.5289 57.4673 59.1588 56.8341ZM62.5605 74.69H53.7414L58.1509 67.0918L62.5605 74.69ZM48.1979 51.3887C48.9538 50.6289 50.0877 50.6289 50.8436 51.3887L56.2611 56.7075C57.017 57.4673 57.017 58.6071 56.2611 59.3669C55.8832 59.7468 55.3792 59.8734 54.8753 59.8734C54.3713 59.8734 53.8674 59.7468 53.6154 59.3669L48.1979 54.0481C47.568 53.4149 47.568 52.1486 48.1979 51.3887ZM44.9222 56.5809C49.4578 56.5809 53.2374 60.2534 53.2374 64.8123C53.2374 69.3713 49.5838 73.1704 44.9222 73.1704C40.2607 73.1704 36.733 69.4979 36.733 64.8123C36.607 60.2534 40.3867 56.5809 44.9222 56.5809Z" fill="#FBBE03"/>
</svg>
