<?xml version="1.0" encoding="UTF-8" standalone="no"?>
<svg
   xmlns:dc="http://purl.org/dc/elements/1.1/"
   xmlns:cc="http://creativecommons.org/ns#"
   xmlns:rdf="http://www.w3.org/1999/02/22-rdf-syntax-ns#"
   xmlns:svg="http://www.w3.org/2000/svg"
   xmlns="http://www.w3.org/2000/svg"
   width="188.62392mm"
   height="39.63979mm"
   viewBox="0 0 188.62392 39.63979"
   version="1.1"
   id="svg8">
  <defs
     id="defs2">
	
	
	
	
	
	
	
	
	
	
	
	
	
	

	
	
	
	
	
	
	
	
	
	
	
</defs>
  <metadata
     id="metadata5">
    <rdf:RDF>
      <cc:Work
         rdf:about="">
        <dc:format>image/svg+xml</dc:format>
        <dc:type
           rdf:resource="http://purl.org/dc/dcmitype/StillImage" />
        <dc:title></dc:title>
      </cc:Work>
    </rdf:RDF>
  </metadata>
  <g
     id="layer1"
     transform="translate(-158.42175,-125.17788)">
    <text
       xml:space="preserve"
       style="font-style:normal;font-variant:normal;font-weight:normal;font-stretch:normal;font-size:4.23333px;line-height:1.25;font-family:'NBC Futura';-inkscape-font-specification:'NBC Futura';letter-spacing:0px;word-spacing:0px;stroke-width:0.264583"
       x="157.7872"
       y="152.19333"
       id="text1117"><tspan
         id="tspan1115"
         x="157.7872"
         y="152.19333"
         style="font-style:normal;font-variant:normal;font-weight:normal;font-stretch:normal;font-family:'NBC Futura';-inkscape-font-specification:'NBC Futura';stroke-width:0.264583" /></text>
    <text
       xml:space="preserve"
       style="font-style:normal;font-variant:normal;font-weight:normal;font-stretch:normal;font-size:4.23333px;line-height:1.25;font-family:'NBC Futura';-inkscape-font-specification:'NBC Futura';letter-spacing:0px;word-spacing:0px;stroke-width:0.264583"
       x="153.17679"
       y="152.99513"
       id="text1121"><tspan
         id="tspan1119"
         x="153.17679"
         y="152.99513"
         style="font-style:normal;font-variant:normal;font-weight:normal;font-stretch:normal;font-family:'NBC Futura';-inkscape-font-specification:'NBC Futura';stroke-width:0.264583" /></text>
    <path
       d="m 290.2845,151.51834 c 0,1.68591 -0.0841,2.75716 -0.2538,3.20855 -0.17154,0.45292 -0.55289,0.67775 -1.14461,0.67775 -0.52086,0 -0.86374,-0.20521 -1.03344,-0.61448 -0.17154,-0.41099 -0.25546,-1.35588 -0.25546,-2.83274 V 126.5844 h -9.35764 v 20.0237 c 0,3.81611 0.074,6.32209 0.22178,7.51278 0.14632,1.19222 0.63037,2.32328 1.44369,3.39607 0.81681,1.07316 2.047,1.94421 3.69056,2.61331 1.6454,0.66909 3.54093,1.00277 5.68879,1.00277 1.94118,0 3.6267,-0.28098 5.05714,-0.84642 1.43025,-0.5637 2.5813,-1.39262 3.45516,-2.48656 0.87387,-1.09414 1.3997,-2.16019 1.57804,-3.1999 0.17651,-1.03605 0.26706,-2.83622 0.26706,-5.40202 V 126.5844 h -9.35746 v 24.93394 z"
       id="path1192"
       style="fill:#ffffff;stroke:#98b676;stroke-width:1.46;stroke-miterlimit:4;stroke-dasharray:none;stroke-opacity:1" />
    <polygon
       points="758.837,3.114 758.837,38.397 789.135,38.397 789.135,179.41 840.351,179.41 840.351,38.397 870.776,38.397 870.776,3.114 "
       id="polygon1194"
       transform="matrix(0.18404967,0,0,0.19232469,162.00169,125.95396)"
       style="fill:#ffffff;stroke:#98b676;stroke-width:7.75831;stroke-miterlimit:4;stroke-dasharray:none;stroke-opacity:1" />
    <polygon
       points="473.89,68.722 473.89,57.234 483.368,57.234 483.368,45.108 460.221,45.108 460.221,105.694 473.89,105.694 473.89,80.254 482.327,80.254 482.327,68.722 "
       id="polygon1196"
       transform="matrix(0.18404967,0,0,0.19232469,162.00169,125.95396)"
       style="fill:#ffffff;stroke:#98b676;stroke-width:4.57102;stroke-miterlimit:4;stroke-dasharray:none;stroke-opacity:1" />
    <path
       d="m 266.46884,149.73068 c 0,2.25808 -0.15626,3.64225 -0.46877,4.15306 -0.31602,0.50774 -1.14958,0.76238 -2.5075,0.76238 v -22.26967 c 1.03013,0 1.73099,0.10002 2.10424,0.30176 0.37141,0.20213 0.60995,0.51985 0.71596,0.95009 0.10251,0.43388 0.15625,1.41724 0.15625,2.95026 v 13.15212 z m 7.54088,-20.63855 c -0.83521,-0.89219 -2.05547,-1.53476 -3.65891,-1.92459 -1.60326,-0.39004 -4.68038,-0.58487 -9.22954,-0.58487 h -7.0502 v 33.85511 h 11.88335 c 2.25184,0 3.93775,-0.11424 5.0553,-0.34426 1.12104,-0.23002 2.06042,-0.63602 2.82166,-1.21376 0.75976,-0.57774 1.29405,-1.38031 1.59828,-2.40579 0.30589,-1.0222 0.46068,-3.05585 0.46068,-6.09573 v -11.85547 c 0,-3.2049 -0.10582,-5.35625 -0.3162,-6.45019 -0.2065,-1.09413 -0.7292,-2.08807 -1.56442,-2.98045"
       id="path1198"
       style="fill:#ffffff;stroke:#98b676;stroke-width:1.46;stroke-miterlimit:4;stroke-dasharray:none;stroke-opacity:1" />
    <path
       d="m 196.92439,148.41172 v -0.002 h -2.13112 l 1.68406,-14.5709 1.68386,14.57263 z m -7.56942,-21.91328 -4.80314,33.91992 h 8.85334 l 0.7327,-6.33787 h 1.49411 v 0.004 h 3.18461 l 0.73271,6.3346 h 8.80126 l -5.38457,-33.92011 z"
       id="path1200"
       style="fill:#ffffff;stroke:#98b676;stroke-width:1.46;stroke-miterlimit:4;stroke-dasharray:none;stroke-opacity:1" />
    <path
       d="m 179.25339,127.53665 c -2.03309,-1.08411 -4.61141,-1.62877 -7.73475,-1.62877 -2.30177,0 -4.33693,0.35421 -6.10861,1.05345 -1.77188,0.70299 -3.15754,1.66465 -4.15512,2.8856 -1.00151,1.22283 -1.5996,2.49343 -1.80215,3.81348 -0.20254,1.32004 -0.30101,3.30093 -0.30101,5.94122 v 10.70301 c 0,3.59277 0.32755,6.27999 0.98244,8.06876 0.65303,1.78857 1.9877,3.18683 4.00379,4.19647 2.01423,1.01131 4.57534,1.5178 7.68354,1.5178 2.99087,0 5.50471,-0.59598 7.54361,-1.79044 2.04055,-1.19425 3.36008,-2.5848 3.95631,-4.16977 0.59436,-1.5883 0.89351,-4.27615 0.89351,-8.07043 v -1.42685 H 173.6104 v 4.60596 c 0,2.01135 -0.12293,3.28946 -0.36528,3.83433 -0.24421,0.54279 -0.75917,0.81731 -1.55047,0.81731 -0.82137,0 -1.35167,-0.27452 -1.58613,-0.81564 -0.23675,-0.54279 -0.35202,-1.70471 -0.35202,-3.48555 v -17.0193 c 0,-1.85344 0.11547,-3.06125 0.35202,-3.61926 0.23467,-0.55802 0.78943,-0.83629 1.662,-0.83629 0.77244,0 1.27413,0.22675 1.49927,0.68776 0.22514,0.45893 0.34061,1.61521 0.34061,3.46657 v 6.36781 h 10.60455 v -3.482 c 0,-3.41921 -0.31988,-5.93935 -0.95798,-7.55998 -0.6379,-1.61918 -1.97235,-2.96947 -4.00358,-4.05525"
       id="path1202"
       style="fill:#ffffff;stroke:#98b676;stroke-width:1.46;stroke-miterlimit:4;stroke-dasharray:none;stroke-opacity:1" />
    <path
       d="m 243.18416,142.97816 c 0,0.68506 -0.0252,1.12068 -0.0756,1.30147 -0.0504,0.1827 -0.16638,0.27387 -0.34786,0.27387 -0.17631,0 -0.2908,-0.0788 -0.33772,-0.23695 -0.0487,-0.15809 -0.074,-0.57582 -0.074,-1.25204 v -5.44086 c 0,-0.5989 0.037,-0.96047 0.11099,-1.08356 0.0738,-0.12309 0.18147,-0.18251 0.32098,-0.18251 0.16306,0 0.27055,0.0756 0.32429,0.22655 0.0537,0.15098 0.0789,0.49697 0.0789,1.03952 z m 2.11602,-7.36873 c -0.26558,-0.40946 -0.6184,-0.71487 -1.05387,-0.91854 -0.43859,-0.20387 -0.9311,-0.3056 -1.48049,-0.3056 -0.57645,0 -1.08405,0.10885 -1.51915,0.32483 -0.43362,0.21598 -0.77982,0.52505 -1.03362,0.92701 -0.25712,0.40235 -0.40841,0.84661 -0.457,1.33473 -0.047,0.48639 -0.0739,1.31531 -0.0739,2.48695 v 1.99287 c 0,1.20145 0.0269,2.03922 0.0756,2.51868 0.0521,0.48101 0.21019,0.92547 0.47558,1.3309 0.26724,0.40734 0.61841,0.71486 1.05534,0.91853 0.43694,0.20367 0.93111,0.3056 1.47719,0.3056 0.57975,0 1.08736,-0.10731 1.52264,-0.32464 0.43362,-0.21598 0.77816,-0.52523 1.03343,-0.92738 0.25547,-0.40389 0.40841,-0.84989 0.45553,-1.33455 0.0487,-0.48811 0.0724,-1.31723 0.0724,-2.48695 v -1.99286 c 0,-1.19954 -0.0235,-2.03922 -0.0756,-2.52023 -0.0489,-0.47774 -0.20834,-0.922 -0.47393,-1.32935"
       id="path1204"
       style="fill:#ffffff;stroke:#98b676;stroke-width:0.86;stroke-miterlimit:4;stroke-dasharray:none;stroke-opacity:1" />
    <polygon
       points="342.675,179.199 342.675,143.981 311.647,143.981 311.647,3.232 260.622,3.232 260.622,179.199 "
       id="polygon1206"
       transform="matrix(0.18404967,0,0,0.19232469,162.00169,125.95396)"
       style="fill:#ffffff;stroke:#98b676;stroke-width:7.75831;stroke-miterlimit:4;stroke-dasharray:none;stroke-opacity:1" />
    <polygon
       points="436.954,179.199 436.954,143.981 405.926,143.981 405.926,3.232 354.901,3.232 354.901,179.199 "
       id="polygon1208"
       transform="matrix(0.18404967,0,0,0.19232469,162.00169,125.95396)"
       style="fill:#ffffff;stroke:#98b676;stroke-width:7.76011;stroke-miterlimit:4;stroke-dasharray:none;stroke-opacity:1" />
    <path
       d="m 346.05137,126.55286 h -8.60617 c -0.1984,0.86393 -0.38503,1.70169 -0.56319,2.5183 h -0.002 l -0.0151,0.0739 c -0.21349,0.97451 -0.41355,1.91941 -0.60183,2.83276 l -0.83688,3.93362 -0.46546,-1.53129 -2.40645,-7.82724 h -4.1459 -4.45529 l 6.58622,21.76039 v 12.34417 h 8.68033 v -11.76258 l 0.035,-0.67794 1.60344,-5.12258 0.30092,-0.95739 z"
       id="path1210"
       style="fill:#ffffff;stroke:#98b676;stroke-width:1.46;stroke-miterlimit:4;stroke-dasharray:none;stroke-opacity:1" />
  </g>
</svg>
