<?xml version="1.0" encoding="utf-8"?>
<!-- Generator: Adobe Illustrator 24.0.2, SVG Export Plug-In . SVG Version: 6.00 Build 0)  -->
<svg version="1.1"
	 id="svg10" inkscape:version="0.92.3 (2405546, 2018-03-11)" xmlns:cc="http://creativecommons.org/ns#" xmlns:dc="http://purl.org/dc/elements/1.1/" xmlns:inkscape="http://www.inkscape.org/namespaces/inkscape" xmlns:rdf="http://www.w3.org/1999/02/22-rdf-syntax-ns#" xmlns:sodipodi="http://sodipodi.sourceforge.net/DTD/sodipodi-0.dtd" xmlns:svg="http://www.w3.org/2000/svg"
	 xmlns="http://www.w3.org/2000/svg" xmlns:xlink="http://www.w3.org/1999/xlink" x="0px" y="0px" viewBox="0 0 5896.1 1450.8"
	 style="enable-background:new 0 0 5896.1 1450.8;" xml:space="preserve">
<style type="text/css">
	.st0{fill:#F51E00;}
	.st1{fill:#FFFFFF;}
</style>
<sodipodi:namedview  bordercolor="#666666" borderopacity="1" gridtolerance="10" guidetolerance="10" id="namedview12" inkscape:current-layer="svg10" inkscape:cx="315.5" inkscape:cy="77.5" inkscape:pageopacity="0" inkscape:pageshadow="2" inkscape:window-height="1017" inkscape:window-maximized="1" inkscape:window-width="1920" inkscape:window-x="-8" inkscape:window-y="-8" inkscape:zoom="2.8922345" objecttolerance="10" pagecolor="#ffffff" showgrid="false">
	</sodipodi:namedview>
<path id="path20" inkscape:connector-curvature="0" class="st0" d="M1950.2,94.7l-3-31.5l-196.3-2.6c-205-2.7-530.3,9.7-558.5,21.2
	c-9.1,3.7-16.4,14.8-16.4,24.6c0,21.1,40.5,123.4,61.6,155.6c10.7,16.4,20.3,21.1,35,17.2c58.6-15.5,283.5-26.5,456.9-22.3
	l193.6,4.7l15-67.7C1946.5,156.6,1951.9,112.1,1950.2,94.7z M1829.2,162.9l-12.8,40.5l-102.8,2c-56.5,1.2-163.8,6.6-238.3,12.2
	c-74.6,5.6-145.1,12.5-156.6,15.3c-17.5,4.3-23.6-0.7-35.5-29.5c-22.7-54.1-15.3-82.1,23.9-90.6c57.7-12.5,511.5-13.7,524-1.3
	C1839.3,119.8,1839,131.9,1829.2,162.9z M1678.7,673c-14.3-19-128.8-40.4-266.9-49.9l-95.4-6.5v126.3c0,134.9,9.2,203.9,33.8,256.1
	c8.5,17.9,20.2,30.8,25.9,28.8c5.7-2.1,88.9-29.9,184.9-61.9c96.1-31.9,178.8-63,183.9-69.2C1754.9,884.7,1701,702.7,1678.7,673z
	 M1538.5,923.1c-55.2,17.9-102.3,32.7-104.9,32.7c-17.4,0-51.9-159.2-51.9-239.5c0-35.9,2.8-41.3,24.1-46.7
	c35.7-8.9,164.3,4.8,187.7,20c20.8,13.6,56.9,96.8,66.2,152.6C1666.2,881.1,1665.1,881.8,1538.5,923.1z M1678.7,673
	c-14.3-19-128.8-40.4-266.9-49.9l-95.4-6.5v126.3c0,134.9,9.2,203.9,33.8,256.1c8.5,17.9,20.2,30.8,25.9,28.8
	c5.7-2.1,88.9-29.9,184.9-61.9c96.1-31.9,178.8-63,183.9-69.2C1754.9,884.7,1701,702.7,1678.7,673z M1538.5,923.1
	c-55.2,17.9-102.3,32.7-104.9,32.7c-17.4,0-51.9-159.2-51.9-239.5c0-35.9,2.8-41.3,24.1-46.7c35.7-8.9,164.3,4.8,187.7,20
	c20.8,13.6,56.9,96.8,66.2,152.6C1666.2,881.1,1665.1,881.8,1538.5,923.1z M4172.5,766.3c-39.7-196.9-75.4-315.3-95.2-315.3
	c-35.2,0-286.3,116.8-339.9,158.2l-23,17.8l22.2,63.8c37.3,107.3,112,276.1,136.1,307.8l22.9,30l57.9-18
	c48.8-15.1,198.1-45.5,223.9-45.5c4.3,0,12.3-8.4,17.9-18.7C4202.6,932.1,4197.3,889.7,4172.5,766.3z M4117.4,923.6
	c-1,0.6-42,12.2-90.9,25.9c-49.1,13.7-94,25-99.8,25c-18.7,0-90.7-169.4-114.4-269c-9.6-40.7-9.5-52,0.9-64.7
	c17.4-21.1,184.8-98.6,200.3-92.6c16,6.1,64.5,161.8,87.7,281.7C4111,880.9,4118.3,923.1,4117.4,923.6z M4172.5,766.3
	c-39.7-196.9-75.4-315.3-95.2-315.3c-35.2,0-286.3,116.8-339.9,158.2l-23,17.8l22.2,63.8c37.3,107.3,112,276.1,136.1,307.8l22.9,30
	l57.9-18c48.8-15.1,198.1-45.5,223.9-45.5c4.3,0,12.3-8.4,17.9-18.7C4202.6,932.1,4197.3,889.7,4172.5,766.3z M4117.4,923.6
	c-1,0.6-42,12.2-90.9,25.9c-49.1,13.7-94,25-99.8,25c-18.7,0-90.7-169.4-114.4-269c-9.6-40.7-9.5-52,0.9-64.7
	c17.4-21.1,184.8-98.6,200.3-92.6c16,6.1,64.5,161.8,87.7,281.7C4111,880.9,4118.3,923.1,4117.4,923.6z M2647.1,447.7
	c-72.8-17.2-165.6-31.8-227.9-35.5l-42.1-2.6l2.8,60.5c3.4,72.7,18.6,194.6,25.8,206.3c6.5,10.6-4.4,11.6,113.5-10.7
	c177.4-33.6,176.4-32.8,186.1-137.6l6.1-65L2647.1,447.7z M2621.2,590.8c-49.5,18.9-164.7,35.9-171.2,25.4
	c-3.5-5.7-8.1-45.7-10.5-89l-4.1-78.6l69.1,6.4c37.9,3.6,83.7,9.6,101.7,13.3c32.3,6.6,32.7,7.3,35.5,60.2
	C2644.3,578.1,2642.8,582.7,2621.2,590.8z M2590.3,824.9c-95.9,0-228.1,19.2-233.8,34c-5.2,13.7,22.7,234.7,31.5,248.9
	c2.9,4.8,17.6,6.2,32.6,3.2c15-3,66.9-8.2,115.4-11.6c69.3-4.9,89.3-9.4,92.9-21.2c6.7-21.9,23.6-177.3,23.7-218.2l0.1-35H2590.3z
	 M2578.8,984.9c-8.1,27.3-15.8,35-39.3,39.7c-45.7,9.2-99.9,6.9-106.9-4.5c-3.5-5.7-8.5-37.1-11.1-69.9
	c-5.7-70.6-5.3-70.8,93.7-72.7l67.6-1.2l3.1,37.4C2587.5,934.3,2584.4,966.3,2578.8,984.9z M2647.1,447.7
	c-72.8-17.2-165.6-31.8-227.9-35.5l-42.1-2.6l2.8,60.5c3.4,72.7,18.6,194.6,25.8,206.3c6.5,10.6-4.4,11.6,113.5-10.7
	c177.4-33.6,176.4-32.8,186.1-137.6l6.1-65L2647.1,447.7z M2621.2,590.8c-49.5,18.9-164.7,35.9-171.2,25.4
	c-3.5-5.7-8.1-45.7-10.5-89l-4.1-78.6l69.1,6.4c37.9,3.6,83.7,9.6,101.7,13.3c32.3,6.6,32.7,7.3,35.5,60.2
	C2644.3,578.1,2642.8,582.7,2621.2,590.8z M2590.3,824.9c-95.9,0-228.1,19.2-233.8,34c-5.2,13.7,22.7,234.7,31.5,248.9
	c2.9,4.8,17.6,6.2,32.6,3.2c15-3,66.9-8.2,115.4-11.6c69.3-4.9,89.3-9.4,92.9-21.2c6.7-21.9,23.6-177.3,23.7-218.2l0.1-35H2590.3z
	 M2578.8,984.9c-8.1,27.3-15.8,35-39.3,39.7c-45.7,9.2-99.9,6.9-106.9-4.5c-3.5-5.7-8.5-37.1-11.1-69.9
	c-5.7-70.6-5.3-70.8,93.7-72.7l67.6-1.2l3.1,37.4C2587.5,934.3,2584.4,966.3,2578.8,984.9z M622.3,465.3
	c-45.6-10.3-182.8-23.6-243.6-23.6h-64l4.9,25.7c2.6,14.1,7.7,59.4,11,100.5C334.1,609,341,650.4,346,660
	c7,13.2,16.2,16.1,38.8,12.2c16.2-2.8,78.5-12.5,138.4-21.6l108.9-16.5l5.5-33.1c3-18.2,5.5-55.1,5.6-82.1
	C643.4,475.8,640.8,469.5,622.3,465.3z M585.5,542.1c-2.8,33.6-4.9,35.6-49.6,47c-25.7,6.5-73.1,14.5-105.1,17.7
	c-53.2,5.3-58.4,4.2-58.5-11.9c-0.1-9.7-2.8-40.4-6.2-68.1l-6.1-50.5l91.4,6.7C576.2,492.2,589.1,497.9,585.5,542.1z M622.3,465.3
	c-45.6-10.3-182.8-23.6-243.6-23.6h-64l4.9,25.7c2.6,14.1,7.7,59.4,11,100.5C334.1,609,341,650.4,346,660
	c7,13.2,16.2,16.1,38.8,12.2c16.2-2.8,78.5-12.5,138.4-21.6l108.9-16.5l5.5-33.1c3-18.2,5.5-55.1,5.6-82.1
	C643.4,475.8,640.8,469.5,622.3,465.3z M585.5,542.1c-2.8,33.6-4.9,35.6-49.6,47c-25.7,6.5-73.1,14.5-105.1,17.7
	c-53.2,5.3-58.4,4.2-58.5-11.9c-0.1-9.7-2.8-40.4-6.2-68.1l-6.1-50.5l91.4,6.7C576.2,492.2,589.1,497.9,585.5,542.1z M622.3,465.3
	c-45.6-10.3-182.8-23.6-243.6-23.6h-64l4.9,25.7c2.6,14.1,7.7,59.4,11,100.5C334.1,609,341,650.4,346,660
	c7,13.2,16.2,16.1,38.8,12.2c16.2-2.8,78.5-12.5,138.4-21.6l108.9-16.5l5.5-33.1c3-18.2,5.5-55.1,5.6-82.1
	C643.4,475.8,640.8,469.5,622.3,465.3z M585.5,542.1c-2.8,33.6-4.9,35.6-49.6,47c-25.7,6.5-73.1,14.5-105.1,17.7
	c-53.2,5.3-58.4,4.2-58.5-11.9c-0.1-9.7-2.8-40.4-6.2-68.1l-6.1-50.5l91.4,6.7C576.2,492.2,589.1,497.9,585.5,542.1z M1678.7,673
	c-14.3-19-128.8-40.4-266.9-49.9l-95.4-6.5v126.3c0,134.9,9.2,203.9,33.8,256.1c8.5,17.9,20.2,30.8,25.9,28.8
	c5.7-2.1,88.9-29.9,184.9-61.9c96.1-31.9,178.8-63,183.9-69.2C1754.9,884.7,1701,702.7,1678.7,673z M1538.5,923.1
	c-55.2,17.9-102.3,32.7-104.9,32.7c-17.4,0-51.9-159.2-51.9-239.5c0-35.9,2.8-41.3,24.1-46.7c35.7-8.9,164.3,4.8,187.7,20
	c20.8,13.6,56.9,96.8,66.2,152.6C1666.2,881.1,1665.1,881.8,1538.5,923.1z M2590.3,824.9c-95.9,0-228.1,19.2-233.8,34
	c-5.2,13.7,22.7,234.7,31.5,248.9c2.9,4.8,17.6,6.2,32.6,3.2c15-3,66.9-8.2,115.4-11.6c69.3-4.9,89.3-9.4,92.9-21.2
	c6.7-21.9,23.6-177.3,23.7-218.2l0.1-35H2590.3z M2578.8,984.9c-8.1,27.3-15.8,35-39.3,39.7c-45.7,9.2-99.9,6.9-106.9-4.5
	c-3.5-5.7-8.5-37.1-11.1-69.9c-5.7-70.6-5.3-70.8,93.7-72.7l67.6-1.2l3.1,37.4C2587.5,934.3,2584.4,966.3,2578.8,984.9z
	 M2647.1,447.7c-72.8-17.2-165.6-31.8-227.9-35.5l-42.1-2.6l2.8,60.5c3.4,72.7,18.6,194.6,25.8,206.3c6.5,10.6-4.4,11.6,113.5-10.7
	c177.4-33.6,176.4-32.8,186.1-137.6l6.1-65L2647.1,447.7z M2621.2,590.8c-49.5,18.9-164.7,35.9-171.2,25.4
	c-3.5-5.7-8.1-45.7-10.5-89l-4.1-78.6l69.1,6.4c37.9,3.6,83.7,9.6,101.7,13.3c32.3,6.6,32.7,7.3,35.5,60.2
	C2644.3,578.1,2642.8,582.7,2621.2,590.8z M4172.5,766.3c-39.7-196.9-75.4-315.3-95.2-315.3c-35.2,0-286.3,116.8-339.9,158.2
	l-23,17.8l22.2,63.8c37.3,107.3,112,276.1,136.1,307.8l22.9,30l57.9-18c48.8-15.1,198.1-45.5,223.9-45.5c4.3,0,12.3-8.4,17.9-18.7
	C4202.6,932.1,4197.3,889.7,4172.5,766.3z M4117.4,923.6c-1,0.6-42,12.2-90.9,25.9c-49.1,13.7-94,25-99.8,25
	c-18.7,0-90.7-169.4-114.4-269c-9.6-40.7-9.5-52,0.9-64.7c17.4-21.1,184.8-98.6,200.3-92.6c16,6.1,64.5,161.8,87.7,281.7
	C4111,880.9,4118.3,923.1,4117.4,923.6z M4172.5,766.3c-39.7-196.9-75.4-315.3-95.2-315.3c-35.2,0-286.3,116.8-339.9,158.2l-23,17.8
	l22.2,63.8c37.3,107.3,112,276.1,136.1,307.8l22.9,30l57.9-18c48.8-15.1,198.1-45.5,223.9-45.5c4.3,0,12.3-8.4,17.9-18.7
	C4202.6,932.1,4197.3,889.7,4172.5,766.3z M4117.4,923.6c-1,0.6-42,12.2-90.9,25.9c-49.1,13.7-94,25-99.8,25
	c-18.7,0-90.7-169.4-114.4-269c-9.6-40.7-9.5-52,0.9-64.7c17.4-21.1,184.8-98.6,200.3-92.6c16,6.1,64.5,161.8,87.7,281.7
	C4111,880.9,4118.3,923.1,4117.4,923.6z M2647.1,447.7c-72.8-17.2-165.6-31.8-227.9-35.5l-42.1-2.6l2.8,60.5
	c3.4,72.7,18.6,194.6,25.8,206.3c6.5,10.6-4.4,11.6,113.5-10.7c177.4-33.6,176.4-32.8,186.1-137.6l6.1-65L2647.1,447.7z
	 M2621.2,590.8c-49.5,18.9-164.7,35.9-171.2,25.4c-3.5-5.7-8.1-45.7-10.5-89l-4.1-78.6l69.1,6.4c37.9,3.6,83.7,9.6,101.7,13.3
	c32.3,6.6,32.7,7.3,35.5,60.2C2644.3,578.1,2642.8,582.7,2621.2,590.8z M2590.3,824.9c-95.9,0-228.1,19.2-233.8,34
	c-5.2,13.7,22.7,234.7,31.5,248.9c2.9,4.8,17.6,6.2,32.6,3.2c15-3,66.9-8.2,115.4-11.6c69.3-4.9,89.3-9.4,92.9-21.2
	c6.7-21.9,23.6-177.3,23.7-218.2l0.1-35H2590.3z M2578.8,984.9c-8.1,27.3-15.8,35-39.3,39.7c-45.7,9.2-99.9,6.9-106.9-4.5
	c-3.5-5.7-8.5-37.1-11.1-69.9c-5.7-70.6-5.3-70.8,93.7-72.7l67.6-1.2l3.1,37.4C2587.5,934.3,2584.4,966.3,2578.8,984.9z M1678.7,673
	c-14.3-19-128.8-40.4-266.9-49.9l-95.4-6.5v126.3c0,134.9,9.2,203.9,33.8,256.1c8.5,17.9,20.2,30.8,25.9,28.8
	c5.7-2.1,88.9-29.9,184.9-61.9c96.1-31.9,178.8-63,183.9-69.2C1754.9,884.7,1701,702.7,1678.7,673z M1538.5,923.1
	c-55.2,17.9-102.3,32.7-104.9,32.7c-17.4,0-51.9-159.2-51.9-239.5c0-35.9,2.8-41.3,24.1-46.7c35.7-8.9,164.3,4.8,187.7,20
	c20.8,13.6,56.9,96.8,66.2,152.6C1666.2,881.1,1665.1,881.8,1538.5,923.1z M622.3,465.3c-45.6-10.3-182.8-23.6-243.6-23.6h-64
	l4.9,25.7c2.6,14.1,7.7,59.4,11,100.5C334.1,609,341,650.4,346,660c7,13.2,16.2,16.1,38.8,12.2c16.2-2.8,78.5-12.5,138.4-21.6
	l108.9-16.5l5.5-33.1c3-18.2,5.5-55.1,5.6-82.1C643.4,475.8,640.8,469.5,622.3,465.3z M585.5,542.1c-2.8,33.6-4.9,35.6-49.6,47
	c-25.7,6.5-73.1,14.5-105.1,17.7c-53.2,5.3-58.4,4.2-58.5-11.9c-0.1-9.7-2.8-40.4-6.2-68.1l-6.1-50.5l91.4,6.7
	C576.2,492.2,589.1,497.9,585.5,542.1z M622.3,465.3c-45.6-10.3-182.8-23.6-243.6-23.6h-64l4.9,25.7c2.6,14.1,7.7,59.4,11,100.5
	C334.1,609,341,650.4,346,660c7,13.2,16.2,16.1,38.8,12.2c16.2-2.8,78.5-12.5,138.4-21.6l108.9-16.5l5.5-33.1
	c3-18.2,5.5-55.1,5.6-82.1C643.4,475.8,640.8,469.5,622.3,465.3z M585.5,542.1c-2.8,33.6-4.9,35.6-49.6,47
	c-25.7,6.5-73.1,14.5-105.1,17.7c-53.2,5.3-58.4,4.2-58.5-11.9c-0.1-9.7-2.8-40.4-6.2-68.1l-6.1-50.5l91.4,6.7
	C576.2,492.2,589.1,497.9,585.5,542.1z M1678.7,673c-14.3-19-128.8-40.4-266.9-49.9l-95.4-6.5v126.3c0,134.9,9.2,203.9,33.8,256.1
	c8.5,17.9,20.2,30.8,25.9,28.8c5.7-2.1,88.9-29.9,184.9-61.9c96.1-31.9,178.8-63,183.9-69.2C1754.9,884.7,1701,702.7,1678.7,673z
	 M1538.5,923.1c-55.2,17.9-102.3,32.7-104.9,32.7c-17.4,0-51.9-159.2-51.9-239.5c0-35.9,2.8-41.3,24.1-46.7
	c35.7-8.9,164.3,4.8,187.7,20c20.8,13.6,56.9,96.8,66.2,152.6C1666.2,881.1,1665.1,881.8,1538.5,923.1z M2590.3,824.9
	c-95.9,0-228.1,19.2-233.8,34c-5.2,13.7,22.7,234.7,31.5,248.9c2.9,4.8,17.6,6.2,32.6,3.2c15-3,66.9-8.2,115.4-11.6
	c69.3-4.9,89.3-9.4,92.9-21.2c6.7-21.9,23.6-177.3,23.7-218.2l0.1-35H2590.3z M2578.8,984.9c-8.1,27.3-15.8,35-39.3,39.7
	c-45.7,9.2-99.9,6.9-106.9-4.5c-3.5-5.7-8.5-37.1-11.1-69.9c-5.7-70.6-5.3-70.8,93.7-72.7l67.6-1.2l3.1,37.4
	C2587.5,934.3,2584.4,966.3,2578.8,984.9z M2647.1,447.7c-72.8-17.2-165.6-31.8-227.9-35.5l-42.1-2.6l2.8,60.5
	c3.4,72.7,18.6,194.6,25.8,206.3c6.5,10.6-4.4,11.6,113.5-10.7c177.4-33.6,176.4-32.8,186.1-137.6l6.1-65L2647.1,447.7z
	 M2621.2,590.8c-49.5,18.9-164.7,35.9-171.2,25.4c-3.5-5.7-8.1-45.7-10.5-89l-4.1-78.6l69.1,6.4c37.9,3.6,83.7,9.6,101.7,13.3
	c32.3,6.6,32.7,7.3,35.5,60.2C2644.3,578.1,2642.8,582.7,2621.2,590.8z M4172.5,766.3c-39.7-196.9-75.4-315.3-95.2-315.3
	c-35.2,0-286.3,116.8-339.9,158.2l-23,17.8l22.2,63.8c37.3,107.3,112,276.1,136.1,307.8l22.9,30l57.9-18
	c48.8-15.1,198.1-45.5,223.9-45.5c4.3,0,12.3-8.4,17.9-18.7C4202.6,932.1,4197.3,889.7,4172.5,766.3z M4117.4,923.6
	c-1,0.6-42,12.2-90.9,25.9c-49.1,13.7-94,25-99.8,25c-18.7,0-90.7-169.4-114.4-269c-9.6-40.7-9.5-52,0.9-64.7
	c17.4-21.1,184.8-98.6,200.3-92.6c16,6.1,64.5,161.8,87.7,281.7C4111,880.9,4118.3,923.1,4117.4,923.6z M4172.5,766.3
	c-39.7-196.9-75.4-315.3-95.2-315.3c-35.2,0-286.3,116.8-339.9,158.2l-23,17.8l22.2,63.8c37.3,107.3,112,276.1,136.1,307.8l22.9,30
	l57.9-18c48.8-15.1,198.1-45.5,223.9-45.5c4.3,0,12.3-8.4,17.9-18.7C4202.6,932.1,4197.3,889.7,4172.5,766.3z M4117.4,923.6
	c-1,0.6-42,12.2-90.9,25.9c-49.1,13.7-94,25-99.8,25c-18.7,0-90.7-169.4-114.4-269c-9.6-40.7-9.5-52,0.9-64.7
	c17.4-21.1,184.8-98.6,200.3-92.6c16,6.1,64.5,161.8,87.7,281.7C4111,880.9,4118.3,923.1,4117.4,923.6z M2647.1,447.7
	c-72.8-17.2-165.6-31.8-227.9-35.5l-42.1-2.6l2.8,60.5c3.4,72.7,18.6,194.6,25.8,206.3c6.5,10.6-4.4,11.6,113.5-10.7
	c177.4-33.6,176.4-32.8,186.1-137.6l6.1-65L2647.1,447.7z M2621.2,590.8c-49.5,18.9-164.7,35.9-171.2,25.4
	c-3.5-5.7-8.1-45.7-10.5-89l-4.1-78.6l69.1,6.4c37.9,3.6,83.7,9.6,101.7,13.3c32.3,6.6,32.7,7.3,35.5,60.2
	C2644.3,578.1,2642.8,582.7,2621.2,590.8z M2590.3,824.9c-95.9,0-228.1,19.2-233.8,34c-5.2,13.7,22.7,234.7,31.5,248.9
	c2.9,4.8,17.6,6.2,32.6,3.2c15-3,66.9-8.2,115.4-11.6c69.3-4.9,89.3-9.4,92.9-21.2c6.7-21.9,23.6-177.3,23.7-218.2l0.1-35H2590.3z
	 M2578.8,984.9c-8.1,27.3-15.8,35-39.3,39.7c-45.7,9.2-99.9,6.9-106.9-4.5c-3.5-5.7-8.5-37.1-11.1-69.9
	c-5.7-70.6-5.3-70.8,93.7-72.7l67.6-1.2l3.1,37.4C2587.5,934.3,2584.4,966.3,2578.8,984.9z M1678.7,673
	c-14.3-19-128.8-40.4-266.9-49.9l-95.4-6.5v126.3c0,134.9,9.2,203.9,33.8,256.1c8.5,17.9,20.2,30.8,25.9,28.8
	c5.7-2.1,88.9-29.9,184.9-61.9c96.1-31.9,178.8-63,183.9-69.2C1754.9,884.7,1701,702.7,1678.7,673z M1538.5,923.1
	c-55.2,17.9-102.3,32.7-104.9,32.7c-17.4,0-51.9-159.2-51.9-239.5c0-35.9,2.8-41.3,24.1-46.7c35.7-8.9,164.3,4.8,187.7,20
	c20.8,13.6,56.9,96.8,66.2,152.6C1666.2,881.1,1665.1,881.8,1538.5,923.1z M622.3,465.3c-45.6-10.3-182.8-23.6-243.6-23.6h-64
	l4.9,25.7c2.6,14.1,7.7,59.4,11,100.5C334.1,609,341,650.4,346,660c7,13.2,16.2,16.1,38.8,12.2c16.2-2.8,78.5-12.5,138.4-21.6
	l108.9-16.5l5.5-33.1c3-18.2,5.5-55.1,5.6-82.1C643.4,475.8,640.8,469.5,622.3,465.3z M585.5,542.1c-2.8,33.6-4.9,35.6-49.6,47
	c-25.7,6.5-73.1,14.5-105.1,17.7c-53.2,5.3-58.4,4.2-58.5-11.9c-0.1-9.7-2.8-40.4-6.2-68.1l-6.1-50.5l91.4,6.7
	C576.2,492.2,589.1,497.9,585.5,542.1z M622.3,465.3c-45.6-10.3-182.8-23.6-243.6-23.6h-64l4.9,25.7c2.6,14.1,7.7,59.4,11,100.5
	C334.1,609,341,650.4,346,660c7,13.2,16.2,16.1,38.8,12.2c16.2-2.8,78.5-12.5,138.4-21.6l108.9-16.5l5.5-33.1
	c3-18.2,5.5-55.1,5.6-82.1C643.4,475.8,640.8,469.5,622.3,465.3z M585.5,542.1c-2.8,33.6-4.9,35.6-49.6,47
	c-25.7,6.5-73.1,14.5-105.1,17.7c-53.2,5.3-58.4,4.2-58.5-11.9c-0.1-9.7-2.8-40.4-6.2-68.1l-6.1-50.5l91.4,6.7
	C576.2,492.2,589.1,497.9,585.5,542.1z M1678.7,673c-14.3-19-128.8-40.4-266.9-49.9l-95.4-6.5v126.3c0,134.9,9.2,203.9,33.8,256.1
	c8.5,17.9,20.2,30.8,25.9,28.8c5.7-2.1,88.9-29.9,184.9-61.9c96.1-31.9,178.8-63,183.9-69.2C1754.9,884.7,1701,702.7,1678.7,673z
	 M1538.5,923.1c-55.2,17.9-102.3,32.7-104.9,32.7c-17.4,0-51.9-159.2-51.9-239.5c0-35.9,2.8-41.3,24.1-46.7
	c35.7-8.9,164.3,4.8,187.7,20c20.8,13.6,56.9,96.8,66.2,152.6C1666.2,881.1,1665.1,881.8,1538.5,923.1z M2590.3,824.9
	c-95.9,0-228.1,19.2-233.8,34c-5.2,13.7,22.7,234.7,31.5,248.9c2.9,4.8,17.6,6.2,32.6,3.2c15-3,66.9-8.2,115.4-11.6
	c69.3-4.9,89.3-9.4,92.9-21.2c6.7-21.9,23.6-177.3,23.7-218.2l0.1-35H2590.3z M2578.8,984.9c-8.1,27.3-15.8,35-39.3,39.7
	c-45.7,9.2-99.9,6.9-106.9-4.5c-3.5-5.7-8.5-37.1-11.1-69.9c-5.7-70.6-5.3-70.8,93.7-72.7l67.6-1.2l3.1,37.4
	C2587.5,934.3,2584.4,966.3,2578.8,984.9z M2647.1,447.7c-72.8-17.2-165.6-31.8-227.9-35.5l-42.1-2.6l2.8,60.5
	c3.4,72.7,18.6,194.6,25.8,206.3c6.5,10.6-4.4,11.6,113.5-10.7c177.4-33.6,176.4-32.8,186.1-137.6l6.1-65L2647.1,447.7z
	 M2621.2,590.8c-49.5,18.9-164.7,35.9-171.2,25.4c-3.5-5.7-8.1-45.7-10.5-89l-4.1-78.6l69.1,6.4c37.9,3.6,83.7,9.6,101.7,13.3
	c32.3,6.6,32.7,7.3,35.5,60.2C2644.3,578.1,2642.8,582.7,2621.2,590.8z M4172.5,766.3c-39.7-196.9-75.4-315.3-95.2-315.3
	c-35.2,0-286.3,116.8-339.9,158.2l-23,17.8l22.2,63.8c37.3,107.3,112,276.1,136.1,307.8l22.9,30l57.9-18
	c48.8-15.1,198.1-45.5,223.9-45.5c4.3,0,12.3-8.4,17.9-18.7C4202.6,932.1,4197.3,889.7,4172.5,766.3z M4117.4,923.6
	c-1,0.6-42,12.2-90.9,25.9c-49.1,13.7-94,25-99.8,25c-18.7,0-90.7-169.4-114.4-269c-9.6-40.7-9.5-52,0.9-64.7
	c17.4-21.1,184.8-98.6,200.3-92.6c16,6.1,64.5,161.8,87.7,281.7C4111,880.9,4118.3,923.1,4117.4,923.6z M4172.5,766.3
	c-39.7-196.9-75.4-315.3-95.2-315.3c-35.2,0-286.3,116.8-339.9,158.2l-23,17.8l22.2,63.8c37.3,107.3,112,276.1,136.1,307.8l22.9,30
	l57.9-18c48.8-15.1,198.1-45.5,223.9-45.5c4.3,0,12.3-8.4,17.9-18.7C4202.6,932.1,4197.3,889.7,4172.5,766.3z M4117.4,923.6
	c-1,0.6-42,12.2-90.9,25.9c-49.1,13.7-94,25-99.8,25c-18.7,0-90.7-169.4-114.4-269c-9.6-40.7-9.5-52,0.9-64.7
	c17.4-21.1,184.8-98.6,200.3-92.6c16,6.1,64.5,161.8,87.7,281.7C4111,880.9,4118.3,923.1,4117.4,923.6z M2647.1,447.7
	c-72.8-17.2-165.6-31.8-227.9-35.5l-42.1-2.6l2.8,60.5c3.4,72.7,18.6,194.6,25.8,206.3c6.5,10.6-4.4,11.6,113.5-10.7
	c177.4-33.6,176.4-32.8,186.1-137.6l6.1-65L2647.1,447.7z M2621.2,590.8c-49.5,18.9-164.7,35.9-171.2,25.4
	c-3.5-5.7-8.1-45.7-10.5-89l-4.1-78.6l69.1,6.4c37.9,3.6,83.7,9.6,101.7,13.3c32.3,6.6,32.7,7.3,35.5,60.2
	C2644.3,578.1,2642.8,582.7,2621.2,590.8z M2356.6,859c-5.2,13.7,22.7,234.7,31.5,248.9c2.9,4.8,17.6,6.2,32.6,3.2
	c15-3,66.9-8.2,115.4-11.6c69.3-4.9,89.3-9.4,92.9-21.2c6.7-21.9,23.6-177.3,23.7-218.2l0.1-35h-62.5
	C2494.5,824.9,2362.3,844.1,2356.6,859z M2578.8,984.9c-8.1,27.3-15.8,35-39.3,39.7c-45.7,9.2-99.9,6.9-106.9-4.5
	c-3.5-5.7-8.5-37.1-11.1-69.9c-5.7-70.6-5.3-70.8,93.7-72.7l67.6-1.2l3.1,37.4C2587.5,934.3,2584.4,966.3,2578.8,984.9z M1678.7,673
	c-14.3-19-128.8-40.4-266.9-49.9l-95.4-6.5v126.3c0,134.9,9.2,203.9,33.8,256.1c8.5,17.9,20.2,30.8,25.9,28.8
	c5.7-2.1,88.9-29.9,184.9-61.9c96.1-31.9,178.8-63,183.9-69.2C1754.9,884.7,1701,702.7,1678.7,673z M1538.5,923.1
	c-55.2,17.9-102.3,32.7-104.9,32.7c-17.4,0-51.9-159.2-51.9-239.5c0-35.9,2.8-41.3,24.1-46.7c35.7-8.9,164.3,4.8,187.7,20
	c20.8,13.6,56.9,96.8,66.2,152.6C1666.2,881.1,1665.1,881.8,1538.5,923.1z M622.3,465.3c-45.6-10.3-182.8-23.6-243.6-23.6h-64
	l4.9,25.7c2.6,14.1,7.7,59.4,11,100.5C334.1,609,341,650.4,346,660c7,13.2,16.2,16.1,38.8,12.2c16.2-2.8,78.5-12.5,138.4-21.6
	l108.9-16.5l5.5-33.1c3-18.2,5.5-55.1,5.6-82.1C643.4,475.8,640.8,469.5,622.3,465.3z M585.5,542.1c-2.8,33.6-4.9,35.6-49.6,47
	c-25.7,6.5-73.1,14.5-105.1,17.7c-53.2,5.3-58.4,4.2-58.5-11.9c-0.1-9.7-2.8-40.4-6.2-68.1l-6.1-50.5l91.4,6.7
	C576.2,492.2,589.1,497.9,585.5,542.1z M5444.5,850.1l-241.2-97l53.4-48.7c63.2-57.9,215-169,380.2-278.5
	c65.6-43.5,116.9-82.8,114-87.5c-12.1-19.5-471.9-149-529.2-149c-45.7,0-143.1,72.7-292,218.1L4820.6,514l-22.1-38.5
	c-12.1-21.1-27.1-54.5-33.3-74.1c-6.3-19.7-17.9-38.2-26-41.4c-8-3.1-71.1,8.3-140.1,25.2c-105.7,26-127.3,28.8-137,17.9
	c-6.3-7.1-35.1-53.2-64-102.4s-59.7-95.5-68.5-102.8c-12.7-10.6-69.8-13.8-283.7-16.3c-284-3.3-431.4,6.6-458.2,30.8
	c-8.8,7.9-34.5,53.3-57.2,100.8c-39.8,83.5-41.3,89.9-44.5,189.3c-3.3,105.1,10.2,289,30.7,418.3l11.4,72.4H3410v-27.4
	c0-15,12.3-182.3,27.5-371.5c45.1-563.9,44-532.2,18-538.7c-22.1-5.4-296.8-37.2-426.4-49.3L2961.3,0v146.1
	c0,80.3-2.4,146.1-5.4,146.1s-29.9-19-59.9-42.1c-70.7-54.3-89.4-60.8-176.5-60.8c-118.1,0-559,30.2-628,43l-23.9,4.4l3,188.9l3,189
	l-44.5-111.2c-29.7-74.2-52.3-117-68.1-128.8c-35.5-26.5-214.4-39-471.7-32.9c-268,6.2-358.6,23.7-374.1,72.5
	c-3.5,10.7-9,16.8-12.3,13.6c-3.5-3.3-25.1-63.4-48.2-133.6l-42.1-127.7l-56.1,2.5c-109.4,5-818.4,84.4-916,102.5
	C5.6,278.2,2.9,281,0.2,313.1C-1.4,332,6,435,16.5,541.8c15.5,156.8,47.4,584,47.4,635.2c0,23.4,45.2,40.7,239.7,91.7
	c108.3,28.3,199.5,51.6,202.4,51.6c6.8,0-4.6-36.4-76.6-243c-58.1-166.9-70.9-228.8-42.6-205.3c16.5,13.7,139.3,262.6,204.9,415.5
	c62.3,145.2,52.5,139,182.2,116.5c115-20,285-41.4,409.3-51.4c52.1-4.3,77.1-10.1,77.1-17.9c0-6.4-124.8-112.2-277.3-235.1
	C830.4,976.8,696.8,868.9,686.2,859.7c-18.8-16.1-15.8-16.5,88-11.5c59.1,2.9,133.3,7.6,165,10.3l57.5,5l6.6,84.9l6.7,84.9
	l73.9,76.9c40.6,42.3,90.8,88.6,111.3,102.9l37.5,26l217.6-6.1c194.2-5.5,463.1-24.8,545.9-39.2l30.4-5.2v115.9l156.6-6.6
	c86.1-3.6,246.9-10.4,357.5-15.1c110.5-4.7,255.3-8.6,321.7-8.9l120.9-0.3l25.5-30.4l25.4-30.4l6.7,35.8c3.7,19.6,11.9,37.7,18,40
	c6.1,2.4,105.5-14.5,220.8-37.5c115.3-22.9,234.1-44.7,264.1-48.2l54.6-6.5l38.9,42.2l39,42.2l335.7-4.7l335.7-4.8l42.8-39.3
	c40.3-37,44.7-38.8,75.5-30.1c17.9,5,97.5,27.7,176.7,50.3c118,33.6,146.3,38.9,155.9,29c6.5-6.7,29.7-45.8,51.6-86.9
	c22-41.1,44.1-77.7,49.3-81.1c16.4-11.1,53,15.6,244.1,178.3c102.8,87.5,189.5,159.3,192.6,159.5c6.5,0.4,0.7,4.4,284-191
	c251-173,275.7-191.1,275.7-202.9C5896.1,1042.5,5701.8,953.5,5444.5,850.1z M1048.6,759.9l-43.4,46.4H786.9
	c-120.1,0-218.3,3.6-218.3,7.9c0,4.3,80.1,82.9,178.1,174.6c204.2,191.1,292,282.2,284.2,294.8c-3,4.8-27.3,8.8-53.9,8.9
	c-26.7,0.1-86.4,6.1-132.6,13.3c-46.3,7.2-101.5,16-122.7,19.5l-38.6,6.4l-65.6-120.2c-36.2-66.1-94.4-178-129.5-248.6L424,834.3
	h-49.5c-35.8,0-51,3.9-55,14.2c-3,7.9,16.5,86.7,43.5,175.2c26.9,88.6,51,168.3,53.6,177.4c3.8,13.7-1.9,16.4-36.8,16.4
	c-37.9,0-130.4-13.4-167.7-24.2c-11-3.2-18.1-24-25.8-75.8c-14.6-98-64-583.1-72-705.5l-6.4-99.7l36.4-9.4
	c83.7-21.8,491.8-70.4,686.1-81.7c86.2-5,109.7-3.6,118,6.6C968.9,253.7,1092,650.6,1092,691C1092,704.9,1075.4,731.3,1048.6,759.9z
	 M2064.6,1099.9c-25,30.1-172.4,48-501.2,61.2c-326.6,13.1-293.5,16.1-352.8-32.2c-28.2-23-66.5-59.4-85-81.1
	c-30.1-35.1-33.6-45-33.6-92.4c0-79,15.9-151.5,37.1-169.1c10.2-8.5,30.9-25.8,46.1-38.6l27.7-23.3l-22.7-71.6
	c-12.5-39.3-22.7-83.3-22.7-97.6c0-41.5,28.3-113.3,50.1-127.2c37.1-23.6,153.3-33,407.7-33c252.1,0,253.5,0.1,274.9,21.5
	c37.8,37.7,148.1,350.3,173.8,492.1C2078.1,986.3,2078.3,1083.4,2064.6,1099.9z M2923,1195.9c-12.7,6.2-147,19.8-303,30.8
	c-154.1,10.8-329.7,22.2-390,25.3l-109.8,5.7v-37.5c0-25,8.1-49.5,24.5-73.7c34.4-50.7,36.7-89.1,13-206.9
	c-19.2-94.9-20.5-123.4-17.5-369.7c1.9-146.8,6.4-270,10.2-273.8c9-9,259.5-36.8,453.1-50.6c116.9-8.2,156.4-8,172.9,0.6
	c29.3,15.3,129.8,93.7,205,159.7l62.2,54.7l-18.5,72.2c-10.2,39.7-25,83.1-32.8,96.4c-7.9,13.3-56,50.7-107,83
	c-51.1,32.4-91.4,63.2-89.7,68.4c1.8,5.2,54,37.3,116.1,71.3c135,73.8,143.3,80.3,143.2,112C3054.6,999.5,2950.8,1182.3,2923,1195.9
	z M2989.4,797.4c0,31.7-1.4,32-51.4,8.6l-37.4-17.4l35.4-14.9C2978.4,756,2989.4,760.8,2989.4,797.4z M3677.2,1078.7
	c-7.9,49.6-11.4,54.7-37.5,54.7c-11.9,0-103.1,14.6-202.7,32.4c-99.7,17.9-211.4,38.3-248.3,45.5l-67,13l-5.5-21.9
	c-18.9-75.1-16.6-130.1,7.7-189.9c13.5-33,24.5-66.2,24.5-73.7c0-7.6-15.3-27-34-43.2l-34.1-29.4l-4.1-93.1
	c-3.8-86-1.6-101.8,29.5-207.8c38-129.3,37.5-133.3-23.4-175.4l-39.1-27.1l5.8-61c3.2-33.6,5.8-98.3,5.8-144l0.1-83.1l72.4,6.2
	c39.8,3.4,113.9,10.9,164.8,16.9l92.3,10.7l-6.4,150.3c-8.4,201-31.7,629-38.8,713.4l-5.6,67.8h349.7L3677.2,1078.7z M4325.9,1037.8
	c-46.3,55.1-84.1,103.5-84.1,107.5c0,3.9,12.7,9.8,28.2,12.9c30,6,42.8,17.3,29.2,25.8c-4.6,2.8-119.3,11.4-254.9,19.2
	c-135.5,7.8-266.1,16.4-290,19.1c-33.8,3.9-47.2,1.4-60.2-11.5c-16-15.9-15.4-16.7,12.4-19.4c38.9-3.8,46.1-14.5,67.9-100.1
	c29.3-114.7,35-107.3-82.9-107.3h-101.7l-5.6-35.4c-19.3-120-44.1-344.3-45-404.1c-0.7-59,3.8-81.7,28.8-141.5
	c47.1-113.3,49.4-114.3,293.5-130c194-12.5,404.1-1,442.6,24.1c24.1,15.9,77.6,103.6,77.8,127.6c0.1,15.6-23.4,26.5-128.4,59.4
	c-27,8.5-49.1,18.6-49.1,22.5c0,7.6,88.1,93,161.2,156.3l44.4,38.4v236.5L4325.9,1037.8z M5566.7,1152.4
	c-63,42.7-139.1,98-169.1,122.8c-30,24.8-57.4,44.8-60.8,44.6c-3.4-0.3-48-33.8-99.3-74.7c-137.7-109.6-313.4-233.3-331.5-233.3
	c-18.5,0-45.2,33.6-103.7,130.7c-32.4,53.9-46.5,69.6-60.8,67.5c-35-5.2-295.5-77.4-332-92c-45.1-18-45.3-17.4,59.5-141.2
	C4580.6,845,4625,787.5,4625,774.2c0-6.4-60.2-58.2-133.7-115.2c-73.5-56.8-138.8-109.6-145.2-117.3c-9.9-11.9-0.3-18,65.8-41.9
	c111.8-40.5,194.3-65,241.7-72l41.4-6.2l29.6,49.7c16.4,27.3,46.3,65.7,66.5,85.3l36.7,35.6l59.7-62.2
	c69.4-72.3,185-171.3,266-227.8l56.6-39.4l97.6,24.5c142.4,35.8,222.3,60.2,228.2,69.9c2.9,4.7-37.9,41-90.8,80.8
	c-147,110.5-362.4,302.2-362.4,322.6c0,4.1,38.9,25.2,86.5,46.9c154.6,70.8,511.7,251.9,511.7,259.6
	C5681.2,1071.3,5629.6,1109.6,5566.7,1152.4z M4475.5,866v-58.2c0-52.7,1.5-57.5,16.5-49.4c9.1,4.9,23.7,16.8,32.6,26.6
	c15.4,17,14.7,19.2-16.4,49.4L4475.5,866z M4077.3,451.1c-35.2,0-286.3,116.8-339.9,158.2l-23,17.8l22.2,63.8
	c37.3,107.3,112,276.1,136.1,307.8l22.9,30l57.9-18c48.8-15.1,198.1-45.5,223.9-45.5c4.3,0,12.3-8.4,17.9-18.7
	c7.6-14.3,2.2-56.7-22.5-180.1C4132.8,569.4,4097.1,451.1,4077.3,451.1z M4117.4,923.6c-1,0.6-42,12.2-90.9,25.9
	c-49.1,13.7-94,25-99.8,25c-18.7,0-90.7-169.4-114.4-269c-9.6-40.7-9.5-52,0.9-64.7c17.4-21.1,184.8-98.6,200.3-92.6
	c16,6.1,64.5,161.8,87.7,281.7C4111,880.9,4118.3,923.1,4117.4,923.6z M2419.2,412.2l-42.1-2.6l2.8,60.5
	c3.4,72.7,18.6,194.6,25.8,206.3c6.5,10.6-4.4,11.6,113.5-10.7c177.4-33.6,176.4-32.8,186.1-137.6l6.1-65l-64.3-15.3
	C2574.3,430.5,2481.5,415.9,2419.2,412.2z M2621.2,590.8c-49.5,18.9-164.7,35.9-171.2,25.4c-3.5-5.7-8.1-45.7-10.5-89l-4.1-78.6
	l69.1,6.4c37.9,3.6,83.7,9.6,101.7,13.3c32.3,6.6,32.7,7.3,35.5,60.2C2644.3,578.1,2642.8,582.7,2621.2,590.8z M2356.6,859
	c-5.2,13.7,22.7,234.7,31.5,248.9c2.9,4.8,17.6,6.2,32.6,3.2c15-3,66.9-8.2,115.4-11.6c69.3-4.9,89.3-9.4,92.9-21.2
	c6.7-21.9,23.6-177.3,23.7-218.2l0.1-35h-62.5C2494.5,824.9,2362.3,844.1,2356.6,859z M2578.8,984.9c-8.1,27.3-15.8,35-39.3,39.7
	c-45.7,9.2-99.9,6.9-106.9-4.5c-3.5-5.7-8.5-37.1-11.1-69.9c-5.7-70.6-5.3-70.8,93.7-72.7l67.6-1.2l3.1,37.4
	C2587.5,934.3,2584.4,966.3,2578.8,984.9z M1411.7,623.1l-95.4-6.5v126.3c0,134.9,9.2,203.9,33.8,256.1
	c8.5,17.9,20.2,30.8,25.9,28.8c5.7-2.1,88.9-29.9,184.9-61.9c96.1-31.9,178.8-63,183.9-69.2c10-12.1-43.8-194-66.2-223.7
	C1664.4,654.1,1549.9,632.7,1411.7,623.1z M1538.5,923.1c-55.2,17.9-102.3,32.7-104.9,32.7c-17.4,0-51.9-159.2-51.9-239.5
	c0-35.9,2.8-41.3,24.1-46.7c35.7-8.9,164.3,4.8,187.7,20c20.8,13.6,56.9,96.8,66.2,152.6C1666.2,881.1,1665.1,881.8,1538.5,923.1z
	 M622.3,465.3c-45.6-10.3-182.8-23.6-243.6-23.6h-64l4.9,25.7c2.6,14.1,7.7,59.4,11,100.5C334.1,609,341,650.4,346,660
	c7,13.2,16.2,16.1,38.8,12.2c16.2-2.8,78.5-12.5,138.4-21.6l108.9-16.5l5.5-33.1c3-18.2,5.5-55.1,5.6-82.1
	C643.4,475.8,640.8,469.5,622.3,465.3z M585.5,542.1c-2.8,33.6-4.9,35.6-49.6,47c-25.7,6.5-73.1,14.5-105.1,17.7
	c-53.2,5.3-58.4,4.2-58.5-11.9c-0.1-9.7-2.8-40.4-6.2-68.1l-6.1-50.5l91.4,6.7C576.2,492.2,589.1,497.9,585.5,542.1z M622.3,465.3
	c-45.6-10.3-182.8-23.6-243.6-23.6h-64l4.9,25.7c2.6,14.1,7.7,59.4,11,100.5C334.1,609,341,650.4,346,660
	c7,13.2,16.2,16.1,38.8,12.2c16.2-2.8,78.5-12.5,138.4-21.6l108.9-16.5l5.5-33.1c3-18.2,5.5-55.1,5.6-82.1
	C643.4,475.8,640.8,469.5,622.3,465.3z M585.5,542.1c-2.8,33.6-4.9,35.6-49.6,47c-25.7,6.5-73.1,14.5-105.1,17.7
	c-53.2,5.3-58.4,4.2-58.5-11.9c-0.1-9.7-2.8-40.4-6.2-68.1l-6.1-50.5l91.4,6.7C576.2,492.2,589.1,497.9,585.5,542.1z M1678.7,673
	c-14.3-19-128.8-40.4-266.9-49.9l-95.4-6.5v126.3c0,134.9,9.2,203.9,33.8,256.1c8.5,17.9,20.2,30.8,25.9,28.8
	c5.7-2.1,88.9-29.9,184.9-61.9c96.1-31.9,178.8-63,183.9-69.2C1754.9,884.7,1701,702.7,1678.7,673z M1538.5,923.1
	c-55.2,17.9-102.3,32.7-104.9,32.7c-17.4,0-51.9-159.2-51.9-239.5c0-35.9,2.8-41.3,24.1-46.7c35.7-8.9,164.3,4.8,187.7,20
	c20.8,13.6,56.9,96.8,66.2,152.6C1666.2,881.1,1665.1,881.8,1538.5,923.1z M2590.3,824.9c-95.9,0-228.1,19.2-233.8,34
	c-5.2,13.7,22.7,234.7,31.5,248.9c2.9,4.8,17.6,6.2,32.6,3.2c15-3,66.9-8.2,115.4-11.6c69.3-4.9,89.3-9.4,92.9-21.2
	c6.7-21.9,23.6-177.3,23.7-218.2l0.1-35H2590.3z M2578.8,984.9c-8.1,27.3-15.8,35-39.3,39.7c-45.7,9.2-99.9,6.9-106.9-4.5
	c-3.5-5.7-8.5-37.1-11.1-69.9c-5.7-70.6-5.3-70.8,93.7-72.7l67.6-1.2l3.1,37.4C2587.5,934.3,2584.4,966.3,2578.8,984.9z
	 M2647.1,447.7c-72.8-17.2-165.6-31.8-227.9-35.5l-42.1-2.6l2.8,60.5c3.4,72.7,18.6,194.6,25.8,206.3c6.5,10.6-4.4,11.6,113.5-10.7
	c177.4-33.6,176.4-32.8,186.1-137.6l6.1-65L2647.1,447.7z M2621.2,590.8c-49.5,18.9-164.7,35.9-171.2,25.4
	c-3.5-5.7-8.1-45.7-10.5-89l-4.1-78.6l69.1,6.4c37.9,3.6,83.7,9.6,101.7,13.3c32.3,6.6,32.7,7.3,35.5,60.2
	C2644.3,578.1,2642.8,582.7,2621.2,590.8z M4172.5,766.3c-39.7-196.9-75.4-315.3-95.2-315.3c-35.2,0-286.3,116.8-339.9,158.2
	l-23,17.8l22.2,63.8c37.3,107.3,112,276.1,136.1,307.8l22.9,30l57.9-18c48.8-15.1,198.1-45.5,223.9-45.5c4.3,0,12.3-8.4,17.9-18.7
	C4202.6,932.1,4197.3,889.7,4172.5,766.3z M4117.4,923.6c-1,0.6-42,12.2-90.9,25.9c-49.1,13.7-94,25-99.8,25
	c-18.7,0-90.7-169.4-114.4-269c-9.6-40.7-9.5-52,0.9-64.7c17.4-21.1,184.8-98.6,200.3-92.6c16,6.1,64.5,161.8,87.7,281.7
	C4111,880.9,4118.3,923.1,4117.4,923.6z M4172.5,766.3c-39.7-196.9-75.4-315.3-95.2-315.3c-35.2,0-286.3,116.8-339.9,158.2l-23,17.8
	l22.2,63.8c37.3,107.3,112,276.1,136.1,307.8l22.9,30l57.9-18c48.8-15.1,198.1-45.5,223.9-45.5c4.3,0,12.3-8.4,17.9-18.7
	C4202.6,932.1,4197.3,889.7,4172.5,766.3z M4117.4,923.6c-1,0.6-42,12.2-90.9,25.9c-49.1,13.7-94,25-99.8,25
	c-18.7,0-90.7-169.4-114.4-269c-9.6-40.7-9.5-52,0.9-64.7c17.4-21.1,184.8-98.6,200.3-92.6c16,6.1,64.5,161.8,87.7,281.7
	C4111,880.9,4118.3,923.1,4117.4,923.6z M2647.1,447.7c-72.8-17.2-165.6-31.8-227.9-35.5l-42.1-2.6l2.8,60.5
	c3.4,72.7,18.6,194.6,25.8,206.3c6.5,10.6-4.4,11.6,113.5-10.7c177.4-33.6,176.4-32.8,186.1-137.6l6.1-65L2647.1,447.7z
	 M2621.2,590.8c-49.5,18.9-164.7,35.9-171.2,25.4c-3.5-5.7-8.1-45.7-10.5-89l-4.1-78.6l69.1,6.4c37.9,3.6,83.7,9.6,101.7,13.3
	c32.3,6.6,32.7,7.3,35.5,60.2C2644.3,578.1,2642.8,582.7,2621.2,590.8z M2590.3,824.9c-95.9,0-228.1,19.2-233.8,34
	c-5.2,13.7,22.7,234.7,31.5,248.9c2.9,4.8,17.6,6.2,32.6,3.2c15-3,66.9-8.2,115.4-11.6c69.3-4.9,89.3-9.4,92.9-21.2
	c6.7-21.9,23.6-177.3,23.7-218.2l0.1-35H2590.3z M2578.8,984.9c-8.1,27.3-15.8,35-39.3,39.7c-45.7,9.2-99.9,6.9-106.9-4.5
	c-3.5-5.7-8.5-37.1-11.1-69.9c-5.7-70.6-5.3-70.8,93.7-72.7l67.6-1.2l3.1,37.4C2587.5,934.3,2584.4,966.3,2578.8,984.9z M1678.7,673
	c-14.3-19-128.8-40.4-266.9-49.9l-95.4-6.5v126.3c0,134.9,9.2,203.9,33.8,256.1c8.5,17.9,20.2,30.8,25.9,28.8
	c5.7-2.1,88.9-29.9,184.9-61.9c96.1-31.9,178.8-63,183.9-69.2C1754.9,884.7,1701,702.7,1678.7,673z M1538.5,923.1
	c-55.2,17.9-102.3,32.7-104.9,32.7c-17.4,0-51.9-159.2-51.9-239.5c0-35.9,2.8-41.3,24.1-46.7c35.7-8.9,164.3,4.8,187.7,20
	c20.8,13.6,56.9,96.8,66.2,152.6C1666.2,881.1,1665.1,881.8,1538.5,923.1z M622.3,465.3c-45.6-10.3-182.8-23.6-243.6-23.6h-64
	l4.9,25.7c2.6,14.1,7.7,59.4,11,100.5C334.1,609,341,650.4,346,660c7,13.2,16.2,16.1,38.8,12.2c16.2-2.8,78.5-12.5,138.4-21.6
	l108.9-16.5l5.5-33.1c3-18.2,5.5-55.1,5.6-82.1C643.4,475.8,640.8,469.5,622.3,465.3z M585.5,542.1c-2.8,33.6-4.9,35.6-49.6,47
	c-25.7,6.5-73.1,14.5-105.1,17.7c-53.2,5.3-58.4,4.2-58.5-11.9c-0.1-9.7-2.8-40.4-6.2-68.1l-6.1-50.5l91.4,6.7
	C576.2,492.2,589.1,497.9,585.5,542.1z M622.3,465.3c-45.6-10.3-182.8-23.6-243.6-23.6h-64l4.9,25.7c2.6,14.1,7.7,59.4,11,100.5
	C334.1,609,341,650.4,346,660c7,13.2,16.2,16.1,38.8,12.2c16.2-2.8,78.5-12.5,138.4-21.6l108.9-16.5l5.5-33.1
	c3-18.2,5.5-55.1,5.6-82.1C643.4,475.8,640.8,469.5,622.3,465.3z M585.5,542.1c-2.8,33.6-4.9,35.6-49.6,47
	c-25.7,6.5-73.1,14.5-105.1,17.7c-53.2,5.3-58.4,4.2-58.5-11.9c-0.1-9.7-2.8-40.4-6.2-68.1l-6.1-50.5l91.4,6.7
	C576.2,492.2,589.1,497.9,585.5,542.1z M1678.7,673c-14.3-19-128.8-40.4-266.9-49.9l-95.4-6.5v126.3c0,134.9,9.2,203.9,33.8,256.1
	c8.5,17.9,20.2,30.8,25.9,28.8c5.7-2.1,88.9-29.9,184.9-61.9c96.1-31.9,178.8-63,183.9-69.2C1754.9,884.7,1701,702.7,1678.7,673z
	 M1538.5,923.1c-55.2,17.9-102.3,32.7-104.9,32.7c-17.4,0-51.9-159.2-51.9-239.5c0-35.9,2.8-41.3,24.1-46.7
	c35.7-8.9,164.3,4.8,187.7,20c20.8,13.6,56.9,96.8,66.2,152.6C1666.2,881.1,1665.1,881.8,1538.5,923.1z M2590.3,824.9
	c-95.9,0-228.1,19.2-233.8,34c-5.2,13.7,22.7,234.7,31.5,248.9c2.9,4.8,17.6,6.2,32.6,3.2c15-3,66.9-8.2,115.4-11.6
	c69.3-4.9,89.3-9.4,92.9-21.2c6.7-21.9,23.6-177.3,23.7-218.2l0.1-35H2590.3z M2578.8,984.9c-8.1,27.3-15.8,35-39.3,39.7
	c-45.7,9.2-99.9,6.9-106.9-4.5c-3.5-5.7-8.5-37.1-11.1-69.9c-5.7-70.6-5.3-70.8,93.7-72.7l67.6-1.2l3.1,37.4
	C2587.5,934.3,2584.4,966.3,2578.8,984.9z M2647.1,447.7c-72.8-17.2-165.6-31.8-227.9-35.5l-42.1-2.6l2.8,60.5
	c3.4,72.7,18.6,194.6,25.8,206.3c6.5,10.6-4.4,11.6,113.5-10.7c177.4-33.6,176.4-32.8,186.1-137.6l6.1-65L2647.1,447.7z
	 M2621.2,590.8c-49.5,18.9-164.7,35.9-171.2,25.4c-3.5-5.7-8.1-45.7-10.5-89l-4.1-78.6l69.1,6.4c37.9,3.6,83.7,9.6,101.7,13.3
	c32.3,6.6,32.7,7.3,35.5,60.2C2644.3,578.1,2642.8,582.7,2621.2,590.8z M4172.5,766.3c-39.7-196.9-75.4-315.3-95.2-315.3
	c-35.2,0-286.3,116.8-339.9,158.2l-23,17.8l22.2,63.8c37.3,107.3,112,276.1,136.1,307.8l22.9,30l57.9-18
	c48.8-15.1,198.1-45.5,223.9-45.5c4.3,0,12.3-8.4,17.9-18.7C4202.6,932.1,4197.3,889.7,4172.5,766.3z M4117.4,923.6
	c-1,0.6-42,12.2-90.9,25.9c-49.1,13.7-94,25-99.8,25c-18.7,0-90.7-169.4-114.4-269c-9.6-40.7-9.5-52,0.9-64.7
	c17.4-21.1,184.8-98.6,200.3-92.6c16,6.1,64.5,161.8,87.7,281.7C4111,880.9,4118.3,923.1,4117.4,923.6z M4172.5,766.3
	c-39.7-196.9-75.4-315.3-95.2-315.3c-35.2,0-286.3,116.8-339.9,158.2l-23,17.8l22.2,63.8c37.3,107.3,112,276.1,136.1,307.8l22.9,30
	l57.9-18c48.8-15.1,198.1-45.5,223.9-45.5c4.3,0,12.3-8.4,17.9-18.7C4202.6,932.1,4197.3,889.7,4172.5,766.3z M4117.4,923.6
	c-1,0.6-42,12.2-90.9,25.9c-49.1,13.7-94,25-99.8,25c-18.7,0-90.7-169.4-114.4-269c-9.6-40.7-9.5-52,0.9-64.7
	c17.4-21.1,184.8-98.6,200.3-92.6c16,6.1,64.5,161.8,87.7,281.7C4111,880.9,4118.3,923.1,4117.4,923.6z M2647.1,447.7
	c-72.8-17.2-165.6-31.8-227.9-35.5l-42.1-2.6l2.8,60.5c3.4,72.7,18.6,194.6,25.8,206.3c6.5,10.6-4.4,11.6,113.5-10.7
	c177.4-33.6,176.4-32.8,186.1-137.6l6.1-65L2647.1,447.7z M2621.2,590.8c-49.5,18.9-164.7,35.9-171.2,25.4
	c-3.5-5.7-8.1-45.7-10.5-89l-4.1-78.6l69.1,6.4c37.9,3.6,83.7,9.6,101.7,13.3c32.3,6.6,32.7,7.3,35.5,60.2
	C2644.3,578.1,2642.8,582.7,2621.2,590.8z M2590.3,824.9c-95.9,0-228.1,19.2-233.8,34c-5.2,13.7,22.7,234.7,31.5,248.9
	c2.9,4.8,17.6,6.2,32.6,3.2c15-3,66.9-8.2,115.4-11.6c69.3-4.9,89.3-9.4,92.9-21.2c6.7-21.9,23.6-177.3,23.7-218.2l0.1-35H2590.3z
	 M2578.8,984.9c-8.1,27.3-15.8,35-39.3,39.7c-45.7,9.2-99.9,6.9-106.9-4.5c-3.5-5.7-8.5-37.1-11.1-69.9
	c-5.7-70.6-5.3-70.8,93.7-72.7l67.6-1.2l3.1,37.4C2587.5,934.3,2584.4,966.3,2578.8,984.9z M1678.7,673
	c-14.3-19-128.8-40.4-266.9-49.9l-95.4-6.5v126.3c0,134.9,9.2,203.9,33.8,256.1c8.5,17.9,20.2,30.8,25.9,28.8
	c5.7-2.1,88.9-29.9,184.9-61.9c96.1-31.9,178.8-63,183.9-69.2C1754.9,884.7,1701,702.7,1678.7,673z M1538.5,923.1
	c-55.2,17.9-102.3,32.7-104.9,32.7c-17.4,0-51.9-159.2-51.9-239.5c0-35.9,2.8-41.3,24.1-46.7c35.7-8.9,164.3,4.8,187.7,20
	c20.8,13.6,56.9,96.8,66.2,152.6C1666.2,881.1,1665.1,881.8,1538.5,923.1z M622.3,465.3c-45.6-10.3-182.8-23.6-243.6-23.6h-64
	l4.9,25.7c2.6,14.1,7.7,59.4,11,100.5C334.1,609,341,650.4,346,660c7,13.2,16.2,16.1,38.8,12.2c16.2-2.8,78.5-12.5,138.4-21.6
	l108.9-16.5l5.5-33.1c3-18.2,5.5-55.1,5.6-82.1C643.4,475.8,640.8,469.5,622.3,465.3z M585.5,542.1c-2.8,33.6-4.9,35.6-49.6,47
	c-25.7,6.5-73.1,14.5-105.1,17.7c-53.2,5.3-58.4,4.2-58.5-11.9c-0.1-9.7-2.8-40.4-6.2-68.1l-6.1-50.5l91.4,6.7
	C576.2,492.2,589.1,497.9,585.5,542.1z M622.3,465.3c-45.6-10.3-182.8-23.6-243.6-23.6h-64l4.9,25.7c2.6,14.1,7.7,59.4,11,100.5
	C334.1,609,341,650.4,346,660c7,13.2,16.2,16.1,38.8,12.2c16.2-2.8,78.5-12.5,138.4-21.6l108.9-16.5l5.5-33.1
	c3-18.2,5.5-55.1,5.6-82.1C643.4,475.8,640.8,469.5,622.3,465.3z M585.5,542.1c-2.8,33.6-4.9,35.6-49.6,47
	c-25.7,6.5-73.1,14.5-105.1,17.7c-53.2,5.3-58.4,4.2-58.5-11.9c-0.1-9.7-2.8-40.4-6.2-68.1l-6.1-50.5l91.4,6.7
	C576.2,492.2,589.1,497.9,585.5,542.1z M1678.7,673c-14.3-19-128.8-40.4-266.9-49.9l-95.4-6.5v126.3c0,134.9,9.2,203.9,33.8,256.1
	c8.5,17.9,20.2,30.8,25.9,28.8c5.7-2.1,88.9-29.9,184.9-61.9c96.1-31.9,178.8-63,183.9-69.2C1754.9,884.7,1701,702.7,1678.7,673z
	 M1538.5,923.1c-55.2,17.9-102.3,32.7-104.9,32.7c-17.4,0-51.9-159.2-51.9-239.5c0-35.9,2.8-41.3,24.1-46.7
	c35.7-8.9,164.3,4.8,187.7,20c20.8,13.6,56.9,96.8,66.2,152.6C1666.2,881.1,1665.1,881.8,1538.5,923.1z M2590.3,824.9
	c-95.9,0-228.1,19.2-233.8,34c-5.2,13.7,22.7,234.7,31.5,248.9c2.9,4.8,17.6,6.2,32.6,3.2c15-3,66.9-8.2,115.4-11.6
	c69.3-4.9,89.3-9.4,92.9-21.2c6.7-21.9,23.6-177.3,23.7-218.2l0.1-35H2590.3z M2578.8,984.9c-8.1,27.3-15.8,35-39.3,39.7
	c-45.7,9.2-99.9,6.9-106.9-4.5c-3.5-5.7-8.5-37.1-11.1-69.9c-5.7-70.6-5.3-70.8,93.7-72.7l67.6-1.2l3.1,37.4
	C2587.5,934.3,2584.4,966.3,2578.8,984.9z M2647.1,447.7c-72.8-17.2-165.6-31.8-227.9-35.5l-42.1-2.6l2.8,60.5
	c3.4,72.7,18.6,194.6,25.8,206.3c6.5,10.6-4.4,11.6,113.5-10.7c177.4-33.6,176.4-32.8,186.1-137.6l6.1-65L2647.1,447.7z
	 M2621.2,590.8c-49.5,18.9-164.7,35.9-171.2,25.4c-3.5-5.7-8.1-45.7-10.5-89l-4.1-78.6l69.1,6.4c37.9,3.6,83.7,9.6,101.7,13.3
	c32.3,6.6,32.7,7.3,35.5,60.2C2644.3,578.1,2642.8,582.7,2621.2,590.8z M4172.5,766.3c-39.7-196.9-75.4-315.3-95.2-315.3
	c-35.2,0-286.3,116.8-339.9,158.2l-23,17.8l22.2,63.8c37.3,107.3,112,276.1,136.1,307.8l22.9,30l57.9-18
	c48.8-15.1,198.1-45.5,223.9-45.5c4.3,0,12.3-8.4,17.9-18.7C4202.6,932.1,4197.3,889.7,4172.5,766.3z M4117.4,923.6
	c-1,0.6-42,12.2-90.9,25.9c-49.1,13.7-94,25-99.8,25c-18.7,0-90.7-169.4-114.4-269c-9.6-40.7-9.5-52,0.9-64.7
	c17.4-21.1,184.8-98.6,200.3-92.6c16,6.1,64.5,161.8,87.7,281.7C4111,880.9,4118.3,923.1,4117.4,923.6z M4172.5,766.3
	c-39.7-196.9-75.4-315.3-95.2-315.3c-35.2,0-286.3,116.8-339.9,158.2l-23,17.8l22.2,63.8c37.3,107.3,112,276.1,136.1,307.8l22.9,30
	l57.9-18c48.8-15.1,198.1-45.5,223.9-45.5c4.3,0,12.3-8.4,17.9-18.7C4202.6,932.1,4197.3,889.7,4172.5,766.3z M4117.4,923.6
	c-1,0.6-42,12.2-90.9,25.9c-49.1,13.7-94,25-99.8,25c-18.7,0-90.7-169.4-114.4-269c-9.6-40.7-9.5-52,0.9-64.7
	c17.4-21.1,184.8-98.6,200.3-92.6c16,6.1,64.5,161.8,87.7,281.7C4111,880.9,4118.3,923.1,4117.4,923.6z M2647.1,447.7
	c-72.8-17.2-165.6-31.8-227.9-35.5l-42.1-2.6l2.8,60.5c3.4,72.7,18.6,194.6,25.8,206.3c6.5,10.6-4.4,11.6,113.5-10.7
	c177.4-33.6,176.4-32.8,186.1-137.6l6.1-65L2647.1,447.7z M2621.2,590.8c-49.5,18.9-164.7,35.9-171.2,25.4
	c-3.5-5.7-8.1-45.7-10.5-89l-4.1-78.6l69.1,6.4c37.9,3.6,83.7,9.6,101.7,13.3c32.3,6.6,32.7,7.3,35.5,60.2
	C2644.3,578.1,2642.8,582.7,2621.2,590.8z M2590.3,824.9c-95.9,0-228.1,19.2-233.8,34c-5.2,13.7,22.7,234.7,31.5,248.9
	c2.9,4.8,17.6,6.2,32.6,3.2c15-3,66.9-8.2,115.4-11.6c69.3-4.9,89.3-9.4,92.9-21.2c6.7-21.9,23.6-177.3,23.7-218.2l0.1-35H2590.3z
	 M2578.8,984.9c-8.1,27.3-15.8,35-39.3,39.7c-45.7,9.2-99.9,6.9-106.9-4.5c-3.5-5.7-8.5-37.1-11.1-69.9
	c-5.7-70.6-5.3-70.8,93.7-72.7l67.6-1.2l3.1,37.4C2587.5,934.3,2584.4,966.3,2578.8,984.9z M1678.7,673
	c-14.3-19-128.8-40.4-266.9-49.9l-95.4-6.5v126.3c0,134.9,9.2,203.9,33.8,256.1c8.5,17.9,20.2,30.8,25.9,28.8
	c5.7-2.1,88.9-29.9,184.9-61.9c96.1-31.9,178.8-63,183.9-69.2C1754.9,884.7,1701,702.7,1678.7,673z M1538.5,923.1
	c-55.2,17.9-102.3,32.7-104.9,32.7c-17.4,0-51.9-159.2-51.9-239.5c0-35.9,2.8-41.3,24.1-46.7c35.7-8.9,164.3,4.8,187.7,20
	c20.8,13.6,56.9,96.8,66.2,152.6C1666.2,881.1,1665.1,881.8,1538.5,923.1z M622.3,465.3c-45.6-10.3-182.8-23.6-243.6-23.6h-64
	l4.9,25.7c2.6,14.1,7.7,59.4,11,100.5C334.1,609,341,650.4,346,660c7,13.2,16.2,16.1,38.8,12.2c16.2-2.8,78.5-12.5,138.4-21.6
	l108.9-16.5l5.5-33.1c3-18.2,5.5-55.1,5.6-82.1C643.4,475.8,640.8,469.5,622.3,465.3z M585.5,542.1c-2.8,33.6-4.9,35.6-49.6,47
	c-25.7,6.5-73.1,14.5-105.1,17.7c-53.2,5.3-58.4,4.2-58.5-11.9c-0.1-9.7-2.8-40.4-6.2-68.1l-6.1-50.5l91.4,6.7
	C576.2,492.2,589.1,497.9,585.5,542.1z"/>
<path class="st1" d="M1829.2,162.9l-12.8,40.5l-102.8,2c-56.5,1.2-163.8,6.6-238.3,12.2c-74.6,5.6-145.1,12.5-156.6,15.3
	c-17.5,4.3-23.6-0.7-35.5-29.5c-22.7-54.1-15.3-82.1,23.9-90.6c57.7-12.5,511.5-13.7,524-1.3C1839.3,119.8,1839,131.9,1829.2,162.9z
	"/>
<path class="st1" d="M5681.2,1067.2c0,4.1-51.6,42.4-114.5,85.2c-63,42.7-139.1,98-169.1,122.8c-30,24.8-57.4,44.8-60.8,44.6
	c-3.4-0.3-48-33.8-99.3-74.7c-137.7-109.6-313.4-233.3-331.5-233.3c-18.5,0-45.2,33.6-103.7,130.7c-32.4,53.9-46.5,69.6-60.8,67.5
	c-35-5.2-295.5-77.4-332-92c-45.1-18-45.3-17.4,59.5-141.2C4580.6,845,4625,787.5,4625,774.2c0-6.4-60.2-58.2-133.7-115.2
	c-73.5-56.8-138.8-109.6-145.2-117.3c-9.9-11.9-0.3-18,65.8-41.9c111.8-40.5,194.3-65,241.7-72l41.4-6.2l29.6,49.7
	c16.4,27.3,46.3,65.7,66.5,85.3l36.7,35.6l59.7-62.2c69.4-72.3,185-171.3,266-227.8l56.6-39.4l97.6,24.5
	c142.4,35.8,222.3,60.2,228.2,69.9c2.9,4.7-37.9,41-90.8,80.8c-147,110.5-362.4,302.2-362.4,322.6c0,4.1,38.9,25.2,86.5,46.9
	C5324,878.4,5681.2,1059.5,5681.2,1067.2z"/>
<path class="st1" d="M4365.6,662.7c-73.1-63.3-161.2-148.7-161.2-156.3c0-3.9,22.1-14,49.1-22.5c105.1-32.9,128.5-43.7,128.4-59.4
	c-0.2-24-53.6-111.7-77.8-127.6c-38.5-25.1-248.5-36.6-442.6-24.1c-244,15.7-246.4,16.7-293.5,130c-25,59.8-29.5,82.5-28.8,141.5
	c0.8,59.7,25.7,284,45,404.1l5.6,35.4h101.7c118,0,112.3-7.4,82.9,107.3c-21.9,85.6-29.1,96.3-67.9,100.1
	c-27.9,2.7-28.4,3.6-12.4,19.4c13,12.9,26.4,15.4,60.2,11.5c23.9-2.7,154.5-11.3,290-19.1c135.6-7.8,250.3-16.4,254.9-19.2
	c13.6-8.5,0.8-19.8-29.2-25.8c-15.5-3.1-28.2-9-28.2-12.9c0-4,37.9-52.4,84.1-107.5l84.1-100.2V701.1L4365.6,662.7z M4195.1,946.4
	c-5.5,10.3-13.6,18.7-17.9,18.7c-25.7,0-175.1,30.4-223.9,45.5l-57.9,18l-22.9-30c-24.1-31.7-98.8-200.5-136.1-307.8l-22.2-63.8
	l23-17.8c53.6-41.4,304.7-158.2,339.9-158.2c19.8,0,55.5,118.3,95.2,315.3C4197.3,889.7,4202.6,932.1,4195.1,946.4z"/>
<path class="st1" d="M3683.3,1039.9l-6.2,38.8c-7.9,49.6-11.4,54.7-37.5,54.7c-11.9,0-103.1,14.6-202.7,32.4
	c-99.7,17.9-211.4,38.3-248.3,45.5l-67,13l-5.5-21.9c-18.9-75.1-16.6-130.1,7.7-189.9c13.5-33,24.5-66.2,24.5-73.7
	c0-7.6-15.3-27-34-43.2l-34.1-29.4l-4.1-93.1c-3.8-86-1.6-101.8,29.5-207.8c38-129.3,37.5-133.3-23.4-175.4l-39.1-27.1l5.8-61
	c3.2-33.6,5.8-98.3,5.8-144l0.1-83.1l72.4,6.2c39.8,3.4,113.9,10.9,164.8,16.9l92.3,10.7l-6.4,150.3c-8.4,201-31.7,629-38.8,713.4
	l-5.6,67.8H3683.3z"/>
<path class="st1" d="M2911.5,851.9c-62.1-34-114.3-66.1-116.1-71.3c-1.7-5.2,38.6-36,89.7-68.4c51-32.3,99.2-69.7,107-83
	c7.9-13.3,22.6-56.6,32.8-96.4l18.5-72.2l-62.2-54.7c-75.1-66.1-175.7-144.4-205-159.7c-16.5-8.6-56-8.8-172.9-0.6
	c-193.7,13.7-444.2,41.6-453.1,50.6c-3.7,3.7-8.3,126.9-10.2,273.8c-3,246.3-1.7,274.8,17.5,369.7c23.7,117.9,21.4,156.3-13,206.9
	c-16.4,24.1-24.5,48.6-24.5,73.7v37.5l109.8-5.7c60.4-3.1,235.9-14.5,390-25.3c156-10.9,290.3-24.6,303-30.8
	c27.9-13.6,131.6-196.4,131.7-232C3054.8,932.2,3046.5,925.8,2911.5,851.9z M2652.8,860c-0.1,40.9-17,196.4-23.7,218.2
	c-3.6,11.8-23.6,16.4-92.9,21.2c-48.5,3.4-100.5,8.6-115.4,11.6c-15,3-29.7,1.6-32.6-3.2c-8.8-14.2-36.7-235.2-31.5-248.9
	c5.7-14.9,137.9-34,233.8-34h62.5L2652.8,860z M2705.3,528c-9.7,104.8-8.7,103.9-186.1,137.6c-117.9,22.3-106.9,21.3-113.5,10.7
	c-7.2-11.7-22.4-133.6-25.8-206.3l-2.8-60.5l42.1,2.6c62.2,3.7,155.1,18.3,227.9,35.5l64.3,15.3L2705.3,528z"/>
<path class="st1" d="M2063.9,908.6c-25.7-141.8-136.1-454.4-173.8-492.1c-21.4-21.4-22.8-21.5-274.9-21.5
	c-254.4,0-370.6,9.3-407.7,33c-21.8,13.9-50.1,85.7-50.1,127.2c0,14.3,10.2,58.2,22.7,97.6l22.7,71.6l-27.7,23.3
	c-15.1,12.8-35.9,30.1-46.1,38.6c-21.2,17.6-37.1,90.1-37.1,169.1c0,47.5,3.6,57.3,33.6,92.4c18.5,21.7,56.7,58.1,85,81.1
	c59.4,48.3,26.3,45.3,352.8,32.2c328.8-13.2,476.2-31.1,501.2-61.2C2078.3,1083.4,2078.1,986.3,2063.9,908.6z M1744.9,896.7
	c-5.1,6.2-87.9,37.3-183.9,69.2c-96,32-179.2,59.7-184.9,61.9c-5.7,2.1-17.4-10.8-25.9-28.8c-24.7-52.2-33.8-121.2-33.8-256.1V616.6
	l95.4,6.5c138.1,9.5,252.6,30.9,266.9,49.9C1701,702.7,1754.9,884.7,1744.9,896.7z"/>
<path class="st1" d="M786.9,806.2h218.3l43.4-46.4c26.8-28.6,43.4-55,43.4-68.9c0-40.4-123.1-437.3-143.7-463.2
	c-8.2-10.3-31.8-11.7-118-6.6c-194.3,11.3-602.5,59.9-686.1,81.7l-36.4,9.4l6.4,99.7c7.9,122.3,57.4,607.5,72,705.5
	c7.7,51.8,14.8,72.6,25.8,75.8c37.3,10.8,129.8,24.2,167.7,24.2c35,0,40.7-2.6,36.8-16.4c-2.6-9.1-26.7-88.8-53.6-177.4
	c-26.9-88.5-46.5-167.4-43.5-175.2c3.9-10.3,19.2-14.2,55-14.2H424l63.8,128.5c35.1,70.7,93.4,182.5,129.5,248.6l65.6,120.2
	l38.6-6.4c21.2-3.6,76.5-12.3,122.7-19.5c46.3-7.2,105.9-13.2,132.6-13.3c26.6-0.1,50.9-4.1,53.9-8.9c7.8-12.6-80-103.7-284.2-294.8
	c-98-91.7-178.1-170.3-178.1-174.6C568.6,809.8,666.8,806.2,786.9,806.2z M523.3,650.6c-59.9,9.1-122.3,18.8-138.4,21.6
	C362.2,676,353,673.1,346,660c-5-9.5-12-50.9-15.4-92.1c-3.4-41.1-8.4-86.4-11-100.5l-4.9-25.7h64c60.8,0,198,13.3,243.6,23.6
	c18.5,4.2,21,10.6,20.9,53.6c-0.1,26.9-2.6,63.8-5.6,82.1l-5.5,33.1L523.3,650.6z"/>
</svg>
